<?xml version="1.0" encoding="UTF-8"?>
<svg version="1.1" xmlns="http://www.w3.org/2000/svg" width="4501" height="4500">
<path d="M0 0 C8.71247246 2.42676767 17.1590655 5.52855522 25.625 8.6875 C26.37820526 8.96800201 27.13141052 9.24850403 27.90744019 9.5375061 C82.70423194 29.98108657 136.55043356 53.11882916 189 79 C190.2440863 79.61382538 190.2440863 79.61382538 191.51330566 80.24005127 C234.67083147 101.55137792 234.67083147 101.55137792 252.36767578 111.5234375 C255.41152668 113.23083968 258.46878328 114.91284392 261.52734375 116.59375 C275.84141695 124.47345452 289.9989803 132.57660339 304 141 C305.61793457 141.97042236 305.61793457 141.97042236 307.26855469 142.96044922 C330.58465839 156.95278158 353.46150473 171.53485419 376 186.75 C377.15591141 187.52984253 377.15591141 187.52984253 378.33517456 188.32543945 C392.59381641 197.95545319 406.74345622 207.74603459 420.5625 218 C421.34641113 218.57975586 422.13032227 219.15951172 422.93798828 219.75683594 C442.70650947 234.39456542 462.37650169 249.19101452 481.3671875 264.83203125 C483.11729526 266.27314373 484.87249612 267.70809403 486.6328125 269.13671875 C492.44042938 273.85223275 498.14472168 278.67316294 503.80786133 283.56005859 C507.32199295 286.58562263 510.88106932 289.5370335 514.5 292.4375 C520.17169902 297.03685416 525.46348563 302.0064379 530.78515625 307 C533.78710002 309.81394325 536.86041198 312.53151903 539.97265625 315.22265625 C543.5620587 318.36943489 547.07010798 321.60528327 550.57666016 324.84375 C552.69810824 326.80234516 554.82602611 328.75334323 556.96069336 330.69750977 C569.12766864 341.85152047 580.73347144 353.58069544 592.39111328 365.26074219 C595.41436243 368.28973331 598.44214391 371.31414816 601.47123718 374.33729362 C603.83409334 376.69651911 606.19454185 379.05814197 608.55429077 381.42047501 C609.66977883 382.53662305 610.78599039 383.65204857 611.90298462 384.7666893 C617.81711077 390.67106446 623.5703042 396.64093907 629 403 C630.22954633 404.34259467 631.46656465 405.67849462 632.71875 407 C633.34136719 407.66 633.96398438 408.32 634.60546875 409 C635.23066406 409.66 635.85585937 410.32 636.5 411 C643.44088328 418.32728297 650.07235674 425.888305 656.625 433.5625 C660.40422738 437.98315311 664.20138483 442.38713937 668.02099609 446.77294922 C673.80572629 453.41869405 679.45977526 460.14809954 685 467 C685.99406922 468.21283208 686.98891311 469.42502948 687.984375 470.63671875 C694.71982771 478.85190678 701.26173718 487.19022987 707.68359375 495.65234375 C710.49881868 499.35720317 713.36002723 503.02384589 716.23291016 506.68408203 C723.19071642 515.55677502 729.86001913 524.60307495 736.40869141 533.78076172 C737.96233038 535.94746596 739.53074263 538.1024919 741.10546875 540.25390625 C773.67099503 584.80574403 803.00445973 631.89707124 830 680 C830.60279785 681.07411133 831.2055957 682.14822266 831.82666016 683.25488281 C841.53368196 700.60017687 850.90295519 718.10161841 859.89788818 735.82830811 C860.66451839 737.3389394 861.43186477 738.84920736 862.19976807 740.35919189 C874.03987469 763.64299476 885.5642855 787.01479412 896.08642578 810.92608643 C897.02069624 813.04698272 897.95921174 815.16596191 898.8984375 817.28466797 C910.25058954 842.92776138 920.79576732 868.88074477 931 895 C931.32250732 895.82359009 931.64501465 896.64718018 931.97729492 897.49572754 C950.60524679 945.11691165 966.79499346 993.88615147 981 1043 C981.26196167 1043.90385437 981.52392334 1044.80770874 981.79382324 1045.73895264 C1009.13662303 1140.27585375 1029.53304711 1236.727086 1067.1268959 1564.82314301 C1067.24456697 1566.84418576 1067.36410538 1568.86511954 1067.48373413 1570.88604736 C1068.06931986 1580.92085379 1068.55618718 1590.9581243 1069 1601 C1069.04274551 1601.951702 1069.08549103 1602.90340401 1069.12953186 1603.88394547 C1070.96722162 1645.07458891 1071.31751336 1686.20366148 1071.25713849 1727.42660803 C1071.24960361 1733.16537001 1071.25231887 1738.90406282 1071.26074219 1744.64282227 C1071.32140649 1787.13930067 1070.8128543 1829.53662998 1069 1872 C1068.96006172 1872.94058636 1068.92012344 1873.88117271 1068.87897491 1874.85026169 C1068.427869 1885.37715644 1067.90407292 1895.89883795 1067.30855942 1906.41851807 C1067.18181832 1908.6631235 1067.05725137 1910.90784256 1066.93301392 1913.15258789 C1062.83845169 1986.89346779 1056.52658063 2060.47518111 968.125 2574.9375 C967.86590851 2575.98040192 967.60681702 2577.02330383 967.33987427 2578.09780884 C965.85727373 2584.05090901 964.33978504 2589.99365135 962.78948975 2595.92947388 C961.94036857 2599.23192176 961.13170333 2602.54320089 960.32080078 2605.85522461 C959.74136549 2608.12000208 959.16050984 2610.38441671 958.578125 2612.6484375 C958.32974884 2613.70034775 958.08137268 2614.752258 957.82546997 2615.83604431 C956.24800563 2621.80293355 954.67418829 2625.27557115 949.42147827 2628.69012451 C947.34428845 2629.84334648 945.32027621 2630.91107958 943.10546875 2631.77734375 C937.11420297 2634.30477952 931.57702575 2637.52760061 925.9375 2640.75 C923.78073683 2641.95453867 921.62317753 2643.15765288 919.46484375 2644.359375 C913.26646306 2647.83336628 907.12708753 2651.40212014 901 2655 C891.93819278 2660.31845219 882.80807171 2665.49871182 873.63012695 2670.61376953 C865.78902812 2674.98751785 857.97984057 2679.41512992 850.1875 2683.875 C849.60604218 2684.20769897 849.02458435 2684.54039795 848.42550659 2684.88317871 C844.2827758 2687.25389051 840.14123961 2689.62668456 836 2692 C831.27165982 2694.70977867 826.54270072 2697.4184702 821.8125 2700.125 C821.23176727 2700.45737671 820.65103455 2700.78975342 820.05270386 2701.13220215 C811.81270322 2705.84634438 803.54232039 2710.50351899 795.25 2715.125 C786.10783915 2720.22086682 777.0514195 2725.44811224 768.02514648 2730.74609375 C759.7879407 2735.56905697 751.47468471 2740.2467535 743.13793945 2744.89501953 C734.00862258 2749.98624609 724.92905085 2755.16042475 715.86132812 2760.36035156 C710.38985222 2763.49571267 704.91325642 2766.62212268 699.4375 2769.75 C689.53694548 2775.40538537 689.53694548 2775.40538537 679.64134216 2781.06942749 C676.69881899 2782.75535957 673.75579528 2784.44041628 670.8125 2786.125 C670.23212982 2786.45719543 669.65175964 2786.78939087 669.05380249 2787.13165283 C660.81343001 2791.84596644 652.54267647 2796.50332054 644.25 2801.125 C635.10554429 2806.22214598 626.04640908 2811.44998746 617.01855469 2816.75048828 C608.85740626 2821.53005592 600.61523139 2826.15366602 592.35107422 2830.75219727 C585.22371733 2834.72815635 578.16060908 2838.80163998 571.125 2842.9375 C561.52293764 2848.57981859 551.81779042 2854.01402817 542.06689453 2859.39428711 C534.65084148 2863.49727022 527.30484825 2867.70245979 520 2872 C511.56777394 2876.96079169 503.06579665 2881.77364413 494.5 2886.5 C485.89397014 2891.2490629 477.34975791 2896.08284722 468.875 2901.0625 C459.85557669 2906.36219078 450.76740851 2911.52142823 441.62963867 2916.61401367 C433.78872856 2920.98772681 425.97968285 2925.41522019 418.1875 2929.875 C417.60604218 2930.20769897 417.02458435 2930.54039795 416.42550659 2930.88317871 C412.2827758 2933.25389051 408.14123961 2935.62668456 404 2938 C399.27165982 2940.70977867 394.54270072 2943.4184702 389.8125 2946.125 C389.23176727 2946.45737671 388.65103455 2946.78975342 388.05270386 2947.13220215 C379.81270322 2951.84634438 371.54232039 2956.50351899 363.25 2961.125 C354.10783915 2966.22086682 345.0514195 2971.44811224 336.02514648 2976.74609375 C327.7879407 2981.56905697 319.47468471 2986.2467535 311.13793945 2990.89501953 C302.00862258 2995.98624609 292.92905085 3001.16042475 283.86132812 3006.36035156 C278.38985222 3009.49571267 272.91325642 3012.62212268 267.4375 3015.75 C257.53694548 3021.40538537 257.53694548 3021.40538537 247.64134216 3027.06942749 C244.69881899 3028.75535957 241.75579528 3030.44041628 238.8125 3032.125 C238.23212982 3032.45719543 237.65175964 3032.78939087 237.05380249 3033.13165283 C228.81343001 3037.84596644 220.54267647 3042.50332054 212.25 3047.125 C203.10554429 3052.22214598 194.04640908 3057.44998746 185.01855469 3062.75048828 C176.85740626 3067.53005592 168.61523139 3072.15366602 160.35107422 3076.75219727 C153.22371733 3080.72815635 146.16060908 3084.80163998 139.125 3088.9375 C129.52293764 3094.57981859 119.81779042 3100.01402817 110.06689453 3105.39428711 C102.65084148 3109.49727022 95.30484825 3113.70245979 88 3118 C79.56777249 3122.96079255 71.06577077 3127.77359533 62.5 3132.5 C53.85373611 3137.27184025 45.26758929 3142.12695473 36.75 3147.125 C28.58333754 3151.91176653 20.40655 3156.67858467 12.1875 3161.375 C11.20813477 3161.94105957 10.22876953 3162.50711914 9.21972656 3163.09033203 C8.31577148 3163.60450684 7.41181641 3164.11868164 6.48046875 3164.6484375 C5.68535889 3165.10395996 4.89024902 3165.55948242 4.07104492 3166.02880859 C2 3167 2 3167 -1 3167 C-1.31969757 3166.05121475 -1.63939514 3165.1024295 -1.96878052 3164.12489319 C-5.05395078 3154.96921582 -8.14002112 3145.81384221 -11.22686958 3136.65873051 C-12.81198378 3131.95744234 -14.39683132 3127.25606471 -15.98095703 3122.55444336 C-24.16941274 3098.25226125 -32.40912266 3073.96828605 -40.70836639 3049.70371532 C-43.95295533 3040.21626091 -47.18053314 3030.7230354 -50.4055481 3021.22891235 C-52.1720272 3016.02867857 -53.93961189 3010.82882052 -55.70703125 3005.62890625 C-56.06516403 3004.57517319 -56.42329681 3003.52144012 -56.7922821 3002.43577576 C-60.54548381 2991.39347944 -64.30353274 2980.35283474 -68.0625 2969.3125 C-68.5545694 2967.86722931 -68.5545694 2967.86722931 -69.05657959 2966.39276123 C-70.70969971 2961.53737453 -72.36288759 2956.68201091 -74.01611328 2951.82666016 C-77.01081463 2943.03141946 -80.00487638 2934.23596103 -82.99899292 2925.44052124 C-84.6659697 2920.54367212 -86.33298687 2915.64683675 -88 2910.75 C-88.66666686 2908.79166673 -89.33333353 2906.8333334 -90 2904.875 C-90.33 2903.905625 -90.66 2902.93625 -91 2901.9375 C-118.66666667 2820.66666667 -146.33333333 2739.39583333 -174 2658.125 C-174.32995972 2657.15574585 -174.65991943 2656.1864917 -174.99987793 2655.18786621 C-175.6669577 2653.22831429 -176.33403126 2651.26876025 -177.00109863 2649.3092041 C-178.66139399 2644.4319979 -180.32179512 2639.55482775 -181.98242188 2634.67773438 C-185.05827438 2625.64390751 -188.13316204 2616.60975617 -191.2043457 2607.57434082 C-192.62736035 2603.38804531 -194.05096529 2599.20195063 -195.47460938 2595.01586914 C-196.14156791 2593.05421705 -196.80824952 2591.09247078 -197.47460938 2589.13061523 C-198.10206918 2587.28332829 -198.7299928 2585.43619881 -199.35839844 2583.5892334 C-199.9686924 2581.7942749 -200.57744246 2579.99879066 -201.18457031 2578.20275879 C-202.82912701 2573.35630674 -204.52487492 2568.53371682 -206.28125 2563.7265625 C-206.65664917 2562.6864502 -207.03204834 2561.64633789 -207.41882324 2560.57470703 C-208.14265822 2558.57405353 -208.87753405 2556.57734873 -209.62512207 2554.58544922 C-212.69974549 2546.03785149 -212.69974549 2546.03785149 -211 2541 C-209.89941406 2538.96801758 -209.89941406 2538.96801758 -208.515625 2537.14453125 C-207.74109985 2536.10220337 -207.74109985 2536.10220337 -206.95092773 2535.03881836 C-206.10896851 2533.93679077 -206.10896851 2533.93679077 -205.25 2532.8125 C-204.0564267 2531.20733829 -202.8650872 2529.60051356 -201.67578125 2527.9921875 C-201.06428223 2527.1681543 -200.4527832 2526.34412109 -199.82275391 2525.49511719 C-196.93330024 2521.53982433 -194.1841164 2517.49270285 -191.4375 2513.4375 C-187.40523009 2507.50429426 -183.33676811 2501.6020338 -179.1875 2495.75 C-166.1911001 2477.40163436 -153.45804021 2458.87772585 -140.87060547 2440.24707031 C-138.82464776 2437.21909229 -136.77646057 2434.1926348 -134.72705078 2431.16699219 C-117.61877074 2405.90726991 -100.68296519 2380.5427519 -84 2355 C-83.28875977 2353.91106445 -82.57751953 2352.82212891 -81.84472656 2351.70019531 C-78.66446112 2346.82596842 -75.49319472 2341.94603329 -72.33251953 2337.05908203 C-70.98318886 2334.9740225 -69.63060975 2332.8911009 -68.27734375 2330.80859375 C-57.68718122 2314.49833625 -47.28617109 2298.06671687 -36.9140625 2281.6171875 C-34.99717701 2278.57753653 -33.07518633 2275.54122035 -31.1484375 2272.5078125 C-18.46406445 2252.52025042 -6.15048942 2232.30182238 6.13574219 2212.06787109 C7.79394176 2209.33909479 9.45440076 2206.61170738 11.1158905 2203.88493347 C19.59430925 2189.96932914 28.01182457 2176.02179671 36.25878906 2161.96728516 C37.83768121 2159.27661562 39.41874217 2156.5872307 41.00041199 2153.89819336 C50.75288247 2137.31477315 60.42060567 2120.68413241 70 2104 C70.97235596 2102.30858887 70.97235596 2102.30858887 71.96435547 2100.58300781 C85.24756839 2077.47194918 98.23517789 2054.2055853 110.89453125 2030.74609375 C113.38515532 2026.13150145 115.89356657 2021.52696378 118.41064453 2016.92675781 C130.19864576 1995.37896763 141.73902598 1973.71618617 152.96548462 1951.87120056 C154.82107902 1948.26709423 156.69424197 1944.67272593 158.58032227 1941.08447266 C166.41878784 1926.1594329 174.01710536 1911.12195503 181.5456543 1896.0390625 C183.2256438 1892.67338446 184.9092652 1889.30953819 186.59383106 1885.94614887 C194.15411158 1870.84744496 201.61712548 1855.70934933 208.84158325 1840.44622803 C209.9206151 1838.16763705 211.00403416 1835.89120664 212.08959961 1833.61572266 C213.96379513 1829.68518562 215.82898361 1825.75047401 217.6875 1821.8125 C218.01672455 1821.1149762 218.3459491 1820.41745239 218.68515015 1819.6987915 C224.69596823 1806.94232342 230.48102983 1794.09150896 236.15698242 1781.18286133 C239.8159908 1772.86859144 243.55623348 1764.59711459 247.359375 1756.34765625 C252.73643683 1744.66322689 257.88573858 1732.89073198 262.9375 1721.0625 C263.38132019 1720.02496582 263.82514038 1718.98743164 264.28240967 1717.91845703 C295.55583753 1644.74552797 323.86363484 1570.44652259 349.01617432 1494.94891357 C349.97912361 1492.06257478 350.94665679 1489.17781295 351.91552734 1486.29345703 C379.49953967 1404.07794711 401.80835672 1319.9909256 419 1235 C419.19080139 1234.05930664 419.38160278 1233.11861328 419.57818604 1232.14941406 C439.36582167 1134.39049266 452.99818914 1033.9802154 453.203125 934.0859375 C453.210148 931.95352152 453.21723481 929.82110576 453.22438049 927.68869019 C453.24376513 920.91745701 453.24881414 914.14625813 453.25 907.375 C453.25044186 906.2214653 453.25088371 905.0679306 453.25133896 903.87944031 C453.25824778 869.48936171 453.00675798 835.28076186 450 801 C449.82101455 798.88739303 449.64231206 796.77476207 449.46386719 794.66210938 C441.31082833 699.40682979 423.14683645 605.70871343 309 328 C308.19199951 326.606604 308.19199951 326.606604 307.36767578 325.18505859 C290.35871194 295.92802521 271.89717213 267.3842183 252 240 C251.44650879 239.236875 250.89301758 238.47375 250.32275391 237.6875 C242.76188849 227.28688271 235.05536299 217.02285289 227 207 C226.4858252 206.3596582 225.97165039 205.71931641 225.44189453 205.05957031 C218.54040139 196.48090446 211.53959185 187.99335799 204.38574219 179.62402344 C202.94270908 177.93285779 201.50625183 176.23625381 200.0703125 174.5390625 C194.13238352 167.54085817 188.04598137 160.7144886 181.78515625 154.00390625 C179.39374075 151.43792308 177.06699528 148.82104871 174.75 146.1875 C168.74825552 139.47966793 162.2904137 133.20516622 155.89355469 126.87768555 C151.90252763 122.92010572 147.93983986 118.93452148 143.98046875 114.9453125 C142.54165542 113.49911726 141.10235519 112.05340855 139.6628418 110.60791016 C138.68374233 109.623788 137.70554305 108.63876938 136.72827148 107.65283203 C131.54830449 102.4283531 126.34265458 97.28861031 120.74975586 92.50244141 C118.16162628 90.28012392 115.68367897 87.95011216 113.1875 85.625 C108.56219047 81.35160029 103.79918099 77.31116271 98.890625 73.36328125 C96.25261094 71.20652651 93.67680244 68.997399 91.10864258 66.7590332 C83.32229814 59.98148145 75.2140505 53.70387875 66.97070312 47.49462891 C65.21265207 46.16128047 63.46951855 44.81215996 61.734375 43.44921875 C42.92241453 28.71318305 22.91596082 14.72348691 1.921875 3.26953125 C1.28765625 2.85058594 0.6534375 2.43164062 0 2 C0 1.34 0 0.68 0 0 Z " fill="#0286CE" transform="translate(2735,504)"/>
<path d="M0 0 C1.09368896 0.61157959 2.18737793 1.22315918 3.31420898 1.85327148 C4.49083932 2.52046488 5.66735008 3.18786918 6.84375 3.85546875 C8.06750205 4.54356197 9.2915453 5.23113757 10.51586914 5.91821289 C14.13074367 7.95003369 17.73788788 9.9951952 21.34375 12.04296875 C22.28976074 12.57954102 23.23577148 13.11611328 24.21044922 13.66894531 C29.31575094 16.56844199 34.41048906 19.4860814 39.50146484 22.41064453 C45.02912106 25.58517721 50.56081174 28.75265443 56.09375 31.91796875 C56.68707123 32.25752594 57.28039246 32.59708313 57.89169312 32.94692993 C66.26492935 37.73717749 74.667025 42.47224614 83.09375 47.16796875 C91.19099279 51.68067397 99.22647328 56.28447149 107.21875 60.98046875 C116.89468813 66.66421427 126.66930939 72.15087135 136.48999023 77.58007812 C145.87696966 82.7719289 155.20007169 88.06736406 164.50146484 93.41064453 C170.02912106 96.58517721 175.56081174 99.75265443 181.09375 102.91796875 C181.68707123 103.25752594 182.28039246 103.59708313 182.89169312 103.94692993 C191.26492935 108.73717749 199.667025 113.47224614 208.09375 118.16796875 C217.19311277 123.23916927 226.20341744 128.44594094 235.18457031 133.72314453 C243.80486947 138.76968745 252.53142016 143.61178064 261.27685547 148.43725586 C268.69291185 152.54024081 276.03883775 156.74553345 283.34375 161.04296875 C292.97693477 166.70860525 302.71004386 172.1734379 312.49047852 177.58032227 C321.8772683 182.77213972 331.20022922 188.06745455 340.50146484 193.41064453 C346.02912106 196.58517721 351.56081174 199.75265443 357.09375 202.91796875 C357.68707123 203.25752594 358.28039246 203.59708313 358.89169312 203.94692993 C367.26492935 208.73717749 375.667025 213.47224614 384.09375 218.16796875 C393.19311277 223.23916927 402.20341744 228.44594094 411.18457031 233.72314453 C419.80486947 238.76968745 428.53142016 243.61178064 437.27685547 248.43725586 C444.69291185 252.54024081 452.03883775 256.74553345 459.34375 261.04296875 C468.97693477 266.70860525 478.71004386 272.1734379 488.49047852 277.58032227 C497.8772683 282.77213972 507.20022922 288.06745455 516.50146484 293.41064453 C521.43220806 296.2423701 526.36619875 299.06841072 531.30160522 301.89199829 C533.08235898 302.91144759 534.86212512 303.93260579 536.6418457 304.95385742 C542.60410087 308.36997239 548.58674037 311.74075289 554.6171875 315.03515625 C555.76993164 315.66824707 556.92267578 316.30133789 558.11035156 316.95361328 C560.30244048 318.15419469 562.49952405 319.34571394 564.70214844 320.52685547 C565.67958008 321.0632666 566.65701172 321.59967773 567.6640625 322.15234375 C568.52273926 322.61608398 569.38141602 323.07982422 570.26611328 323.55761719 C572.54897813 325.18969119 573.33785308 326.45637668 574.34375 329.04296875 C573.47234375 329.97496094 572.6009375 330.90695312 571.703125 331.8671875 C565.90008075 338.07723259 560.10231467 344.29162456 554.34375 350.54296875 C547.11871422 358.38436401 539.83384823 366.16970118 532.55273438 373.95898438 C526.46606344 380.47138967 520.38408956 386.98753029 514.34375 393.54296875 C507.11859705 401.38425733 499.83384931 409.16970002 492.55273438 416.95898438 C486.46606344 423.47138967 480.38408956 429.98753029 474.34375 436.54296875 C467.11859705 444.38425733 459.83384931 452.16970002 452.55273438 459.95898438 C445.97505632 466.99674046 439.40908923 474.04437632 432.88232422 481.12939453 C428.46028708 485.92590786 424.00748938 490.69334488 419.55249023 495.45922852 C415.82191409 499.45249961 412.10747894 503.45999635 408.40625 507.48046875 C403.27581325 513.05223339 398.09777436 518.57831728 392.91259766 524.09912109 C389.01636401 528.25051867 385.13784647 532.41723349 381.28125 536.60546875 C374.07859902 544.42749448 366.81376248 552.19118877 359.55273438 559.95898438 C353.46606344 566.47138967 347.38408956 572.98753029 341.34375 579.54296875 C334.11859705 587.38425733 326.83384931 595.16970002 319.55273438 602.95898438 C313.46606344 609.47138967 307.38408956 615.98753029 301.34375 622.54296875 C294.11859705 630.38425733 286.83384931 638.16970002 279.55273438 645.95898438 C273.46606344 652.47138967 267.38408956 658.98753029 261.34375 665.54296875 C254.11859705 673.38425733 246.83384931 681.16970002 239.55273438 688.95898438 C233.46606344 695.47138967 227.38408956 701.98753029 221.34375 708.54296875 C214.11859705 716.38425733 206.83384931 724.16970002 199.55273438 731.95898438 C193.46606344 738.47138967 187.38408956 744.98753029 181.34375 751.54296875 C174.11859705 759.38425733 166.83384931 767.16970002 159.55273438 774.95898438 C153.46606344 781.47138967 147.38408956 787.98753029 141.34375 794.54296875 C134.11859705 802.38425733 126.83384931 810.16970002 119.55273438 817.95898438 C113.46606344 824.47138967 107.38408956 830.98753029 101.34375 837.54296875 C94.11859705 845.38425733 86.83384931 853.16970002 79.55273438 860.95898438 C72.49975823 868.50528344 65.46090202 876.06404082 58.453125 883.65234375 C57.73556534 884.41109802 57.73556534 884.41109802 57.00350952 885.18518066 C55.72341907 886.61800076 54.51639886 888.11631508 53.34341431 889.63806152 C46.99355582 897.47168783 41.32039496 900.16406864 31.3828125 902.08984375 C30.0144693 902.38755893 28.64698545 902.68924699 27.28031921 902.99456787 C24.36937956 903.63725176 21.45469134 904.25458862 18.53408813 904.85180664 C13.88801389 905.80301582 9.25636944 906.8144864 4.62573242 907.83789062 C3.04511169 908.18662302 1.46446891 908.53525549 -0.11619568 908.88378906 C-0.90201963 909.0570874 -1.68784359 909.23038574 -2.49748039 909.40893555 C-4.8948467 909.93537858 -7.29334127 910.4563402 -9.692276 910.97558594 C-24.648339 914.21682827 -39.50389551 917.80318152 -54.34375 921.54296875 C-55.56033295 921.84859741 -56.77691589 922.15422607 -58.03036499 922.46911621 C-119.32633 937.90205631 -179.69628246 956.08034023 -239.65625 976.04296875 C-240.48364685 976.31798218 -241.3110437 976.59299561 -242.16351318 976.87634277 C-276.77064618 988.38758935 -310.91400254 1001.20292827 -344.65625 1015.04296875 C-345.86909668 1015.53941895 -347.08194336 1016.03586914 -348.33154297 1016.54736328 C-380.91971007 1029.91511709 -412.99888936 1044.39257498 -444.56848145 1060.01177979 C-446.71686509 1061.07290771 -448.86741171 1062.12953659 -451.01855469 1063.18505859 C-467.91376642 1071.47912237 -484.57666319 1079.99134304 -500.86376953 1089.43945312 C-504.87530016 1091.74297937 -508.92499581 1093.97589547 -512.97241211 1096.21557617 C-539.67253901 1111.01622162 -565.77695834 1127.14117465 -590.75390625 1144.70556641 C-592.77983106 1146.12984979 -594.81166044 1147.54546594 -596.84375 1148.9609375 C-606.60601632 1155.78300241 -616.17741374 1162.83332367 -625.65625 1170.04296875 C-626.49833008 1170.68032959 -626.49833008 1170.68032959 -627.35742188 1171.33056641 C-640.59625214 1181.35504682 -653.42946694 1191.88507524 -666.04980469 1202.67480469 C-667.68579842 1204.06813431 -669.33037368 1205.45076844 -670.9765625 1206.83203125 C-686.16001358 1219.62165568 -700.2360606 1233.53028745 -714.28125 1247.54296875 C-714.9400415 1248.19908142 -715.59883301 1248.85519409 -716.27758789 1249.53118896 C-722.95744651 1256.19044101 -729.5686533 1262.82978327 -735.65625 1270.04296875 C-737.11070517 1271.65065248 -738.56845895 1273.2553659 -740.03125 1274.85546875 C-743.87553245 1279.12042183 -747.55151905 1283.49157725 -751.16015625 1287.95703125 C-752.96823156 1290.19236692 -754.78737763 1292.4148508 -756.62109375 1294.62890625 C-817.94193249 1368.90312309 -859.92041846 1458.63765287 -885.65625 1645.04296875 C-885.69129639 1646.42162109 -885.69129639 1646.42162109 -885.72705078 1647.828125 C-887.52216714 1731.70078869 -870.73977297 1815.57348937 -757.09619141 2094.53027344 C-755.08445627 2098.04074784 -753.17278332 2101.60205474 -751.25878906 2105.16650391 C-744.15725921 2118.39093244 -736.49003886 2131.24141135 -728.65625 2144.04296875 C-728.10759277 2144.94515137 -727.55893555 2145.84733398 -726.99365234 2146.77685547 C-718.00093155 2161.53519185 -708.51985407 2175.97587693 -699.03125 2190.41796875 C-698.41836121 2191.35323395 -697.80547241 2192.28849915 -697.17401123 2193.25210571 C-689.40361211 2205.09924205 -681.41048731 2216.73011199 -673.03114319 2228.15487671 C-670.93584674 2231.03227299 -668.89054252 2233.94339344 -666.84375 2236.85546875 C-660.61048964 2245.62227282 -654.03111152 2254.13041704 -647.48193359 2262.66210938 C-645.93757058 2264.67610083 -644.39850066 2266.69388253 -642.86328125 2268.71484375 C-637.26037365 2276.06351865 -631.48121337 2283.25666758 -625.63671875 2290.4140625 C-625.13833496 2291.02491699 -624.63995117 2291.63577148 -624.12646484 2292.26513672 C-623.14959977 2293.44639402 -622.16031308 2294.61749235 -621.15869141 2295.77783203 C-617.65625 2299.84411111 -617.65625 2299.84411111 -617.65625 2302.04296875 C-622.86263164 2300.3361303 -627.12239318 2297.24519039 -631.62890625 2294.21484375 C-632.50663193 2293.62938782 -633.3843576 2293.04393188 -634.28868103 2292.44073486 C-636.15363088 2291.19542109 -638.01708472 2289.94786445 -639.87915039 2288.69824219 C-642.65365792 2286.83664329 -645.43279107 2284.98214052 -648.21289062 2283.12890625 C-672.20225292 2267.1042843 -695.70520993 2250.44805795 -718.60546875 2232.90234375 C-723.07684025 2229.47803883 -727.57867521 2226.09681626 -732.09375 2222.73046875 C-738.79830805 2217.72216389 -745.39238801 2212.58524542 -751.95166016 2207.38867188 C-753.64351065 2206.05302594 -755.34194842 2204.72628578 -757.04296875 2203.40234375 C-769.30793684 2193.84615992 -781.28782701 2183.94527951 -793.12963867 2173.87060547 C-796.39720921 2171.09411786 -799.69984143 2168.36738952 -803.03125 2165.66796875 C-808.73712924 2161.02210771 -814.28176153 2156.20089757 -819.828125 2151.3671875 C-822.28368309 2149.22881601 -824.75069554 2147.10563875 -827.234375 2145 C-833.91676638 2139.33269081 -840.43606149 2133.53573017 -846.83056641 2127.54467773 C-849.71061389 2124.84651514 -852.60036863 2122.178613 -855.59375 2119.60546875 C-860.1170054 2115.70077819 -864.45340303 2111.59665996 -868.81176758 2107.51025391 C-871.88032362 2104.63341143 -874.95266997 2101.76229971 -878.05859375 2098.92578125 C-884.19443077 2093.32077062 -890.18571914 2087.61711026 -895.99267578 2081.66967773 C-898.63376032 2078.98332485 -901.32726476 2076.43955387 -904.1953125 2073.99609375 C-909.87118879 2069.0857473 -915.11625843 2063.73204798 -920.41088867 2058.41870117 C-922.21487085 2056.60935942 -924.02413665 2054.80542556 -925.83398438 2053.00195312 C-931.09601745 2047.74263734 -936.27434601 2042.48319386 -941.10131836 2036.81616211 C-943.95375789 2033.56333304 -947.0668774 2030.56864295 -950.15625 2027.54296875 C-954.58552059 2023.20502333 -958.81233097 2018.78754048 -962.86132812 2014.09179688 C-966.02470663 2010.48093283 -969.34883451 2007.02145745 -972.65625 2003.54296875 C-977.24210226 1998.71991723 -981.74615459 1993.85324627 -986.10644531 1988.82470703 C-988.04649841 1986.59431833 -990.03675303 1984.41218862 -992.03125 1982.23046875 C-995.97996445 1977.86011191 -999.7025221 1973.33993796 -1003.40625 1968.76171875 C-1005.59126569 1966.12149146 -1007.84796391 1963.57567155 -1010.15625 1961.04296875 C-1014.38175081 1956.39564514 -1018.35812411 1951.58309051 -1022.30761719 1946.70068359 C-1024.4132892 1944.11242998 -1026.54224011 1941.54350761 -1028.66821289 1938.97192383 C-1038.71200399 1926.81723426 -1048.5948406 1914.55088082 -1058.15429688 1902.01025391 C-1059.92684411 1899.68853973 -1061.70580141 1897.37178814 -1063.484375 1895.0546875 C-1070.62439901 1885.73786809 -1077.69520008 1876.39400757 -1084.43457031 1866.78271484 C-1085.73978766 1864.92400604 -1087.05281192 1863.07099285 -1088.3671875 1861.21875 C-1090.90143427 1857.64486748 -1093.42456629 1854.06330337 -1095.94335938 1850.47851562 C-1097.13560851 1848.78326515 -1098.32976272 1847.08935356 -1099.52539062 1845.39648438 C-1108.72455752 1832.36356697 -1117.56121375 1819.16590101 -1126.02441406 1805.64355469 C-1127.59713561 1803.13717678 -1129.18250465 1800.63938029 -1130.7734375 1798.14453125 C-1148.60610269 1770.15463764 -1165.1838389 1741.40098268 -1180.65625 1712.04296875 C-1180.97549438 1711.43841858 -1181.29473877 1710.83386841 -1181.62365723 1710.21099854 C-1191.54854483 1691.40997146 -1200.96495474 1672.45262845 -1209.65625 1653.04296875 C-1210.18283203 1651.87008301 -1210.70941406 1650.69719727 -1211.25195312 1649.48876953 C-1243.90938981 1576.38650619 -1268.3305065 1499.45968953 -1233.05371094 945.65332031 C-1217.95814835 906.65381304 -1200.54447639 868.10315001 -1180.07861328 831.60253906 C-1178.62022253 828.97813662 -1177.19462687 826.33821481 -1175.77734375 823.69140625 C-1168.18490646 809.53239944 -1160.05562371 795.73734514 -1151.65625 782.04296875 C-1151.16753418 781.2442334 -1150.67881836 780.44549805 -1150.17529297 779.62255859 C-1136.22677164 756.92319645 -1121.34386453 734.57793123 -1105.65625 713.04296875 C-1104.84631592 711.92873535 -1104.84631592 711.92873535 -1104.02001953 710.79199219 C-1086.03765518 686.10356739 -1067.35917625 661.8731151 -1047.5390625 638.62695312 C-1044.69240846 635.28504787 -1041.91044148 631.89879151 -1039.15625 628.48046875 C-1035.0316901 623.40977324 -1030.66008401 618.61104396 -1026.21875 613.8203125 C-1023.551392 610.92931931 -1020.95801397 607.98495233 -1018.37890625 605.015625 C-1010.97561406 596.53793213 -1003.31464918 588.28949695 -995.65625 580.04296875 C-995.10664612 579.44979858 -994.55704224 578.85662842 -993.99078369 578.2454834 C-983.08896 566.4974246 -971.86299166 555.09185021 -960.51708984 543.7734375 C-958.10917584 541.37129367 -955.70588385 538.9645828 -953.30381775 536.55659294 C-950.96540068 534.21367091 -948.62315798 531.87458892 -946.28125 529.53515625 C-945.43216064 528.68404266 -944.58307129 527.83292908 -943.70825195 526.95602417 C-939.36175627 522.62647146 -934.9497241 518.4431767 -930.28759766 514.45413208 C-928.30926578 512.74281727 -926.47269187 510.92428354 -924.65625 509.04296875 C-921.57379495 505.91885891 -918.38115228 503.01595787 -915.0546875 500.15625 C-911.86478047 497.34559901 -908.76369109 494.44417461 -905.65625 491.54296875 C-900.23759717 486.49302823 -894.75848365 481.54701453 -889.12597656 476.73583984 C-887.34404854 475.21362808 -885.56256399 473.69089901 -883.78125 472.16796875 C-883.17240967 471.64799316 -882.56356934 471.12801758 -881.9362793 470.59228516 C-878.39924739 467.56352099 -874.91198515 464.49117412 -871.46875 461.35546875 C-867.28740567 457.56229482 -862.96587022 453.98078639 -858.578125 450.4296875 C-855.38213762 447.81906145 -852.23562757 445.15565807 -849.09375 442.48046875 C-844.60104282 438.66245217 -840.05940944 434.92323142 -835.4375 431.26171875 C-832.58085511 428.98282227 -829.74944749 426.67512848 -826.91967773 424.36303711 C-820.39164937 419.03267125 -813.81211685 413.79710247 -807.109375 408.6875 C-804.56330744 406.7451161 -802.036003 404.7802903 -799.515625 402.8046875 C-789.49192874 394.95019127 -779.3324616 387.31179855 -769.05175781 379.79736328 C-765.85386184 377.45532491 -762.66674536 375.09883625 -759.47924805 372.74267578 C-733.2191203 353.34388323 -706.44587134 334.79896646 -679.24241638 316.75300598 C-675.63046773 314.356489 -672.02345469 311.953085 -668.42578125 309.53515625 C-632.37675268 285.30966654 -595.27720331 262.51716582 -557.67333984 240.78759766 C-554.55683038 238.98547946 -551.44426863 237.1766721 -548.33203125 235.3671875 C-526.87615449 222.91395794 -505.18845934 210.89587798 -483.3515625 199.125 C-479.79315361 197.20503382 -476.24553989 195.26811862 -472.7109375 193.3046875 C-429.49229605 169.34527013 -384.94091055 146.99181207 -339.95605469 126.55615234 C-336.33599941 124.8961122 -332.73273955 123.20312026 -329.1328125 121.5 C-263.58987944 90.50232497 -196.58133558 62.38137923 -128.65625 37.04296875 C-127.02049973 36.43149948 -125.38475749 35.82000873 -123.74902344 35.20849609 C-93.70397505 23.98882284 -63.51173833 13.20194597 -33.06112671 3.13061523 C-31.137028 2.49298856 -29.21417252 1.85159698 -27.29263306 1.20629883 C-24.6155388 0.30914056 -21.93373412 -0.57215516 -19.25 -1.44921875 C-18.45277023 -1.71930756 -17.65554047 -1.98939636 -16.83415222 -2.26766968 C-9.94562841 -4.48416866 -6.33688213 -3.56738711 0 0 Z " fill="#0487CD" transform="translate(1988.65625,1514.95703125)"/>
<path d="M0 0 C2.17792654 -0.00766134 4.35584516 -0.01849224 6.53373623 -0.03309269 C28.13641303 -0.16601035 49.24888486 2.04180082 70.59837103 5.18493878 C72.36429849 5.43933067 74.13024904 5.69356235 75.89622259 5.94763409 C164.82707889 18.87788398 252.66272753 43.11528069 356.59837103 86.18493878 C357.78237494 86.69846905 358.96637884 87.21199933 360.18626165 87.74109112 C387.2557913 99.54587639 414.09699855 112.14562582 439.8386054 126.64099347 C442.88753603 128.34671156 445.95254962 130.02102908 449.02024603 131.69275128 C483.91206422 150.76425898 517.75611378 172.33758823 549.59837103 196.18493878 C550.68794262 196.99259773 551.77777693 197.79990241 552.86790228 198.60681378 C555.79091696 200.78312766 558.69791419 202.97867656 561.59837103 205.18493878 C563.11237494 206.33155987 563.11237494 206.33155987 564.65696478 207.50134503 C577.41685754 217.20854711 589.79783245 227.39127419 601.98313665 237.80798566 C603.64671646 239.22615224 605.31732979 240.63569195 606.98899603 242.04431378 C614.52243216 248.41533318 621.80090159 255.01260355 628.97727728 261.78259503 C631.17397402 263.85472194 633.38323275 265.90856199 635.62571478 267.93103253 C643.1286048 274.70975316 650.31631937 281.79495055 657.47337103 288.93493878 C657.97191595 289.43089551 658.47046087 289.92685223 658.98411322 290.43783795 C664.15234328 295.58488151 669.2238727 300.77013817 673.97092962 306.31238019 C676.86379983 309.64096021 679.9339629 312.80326421 682.97337103 315.99743878 C687.97630648 321.29448472 692.76971981 326.66429278 697.30930853 332.36853253 C699.54101581 335.11437033 701.84808266 337.77063376 704.18748236 340.42419659 C710.55250481 347.65092501 716.49114657 355.11385519 722.28196478 362.80603253 C724.51003387 365.76465947 726.77244527 368.69091397 729.07102728 371.59509503 C736.29956512 380.73373868 743.07369314 390.06514797 749.57883978 399.73181378 C752.19209274 403.61172388 754.90525735 407.40560547 757.66087103 411.18493878 C769.39305406 427.43404775 779.41325567 444.94730111 789.59837103 462.18493878 C790.12430853 463.07406964 790.65024603 463.9632005 791.19212103 464.87927472 C799.63873403 479.22641881 807.31679188 493.95171902 814.86448431 508.78454816 C816.38829181 511.7729445 817.92607107 514.75350772 819.46946478 517.73181378 C833.3363762 544.70161947 844.8848189 572.8363785 855.59837103 601.18493878 C855.86436102 601.88709515 856.13035101 602.58925153 856.4044013 603.31268536 C889.60950735 691.11334961 909.47108702 783.36043374 882.53587103 1463.74743878 C882.3477384 1464.68648053 882.15960577 1465.62552228 881.96577215 1466.59301984 C881.44337056 1469.18909228 880.91149707 1471.78300544 880.37571478 1474.37634503 C880.22412909 1475.1325665 880.07254339 1475.88878796 879.91636419 1476.66792523 C879.2048732 1480.05188135 878.54263658 1482.26854045 876.59837103 1485.18493878 C876.42821478 1483.95605939 876.25805853 1482.72717999 876.08274603 1481.46106183 C863.28670676 1389.51467549 841.70991541 1299.54090167 786.59837103 1158.18493878 C786.05790515 1156.95693644 785.51787546 1155.72874204 784.97825384 1154.50036847 C770.91417273 1122.53565874 755.76563838 1090.75022854 738.03538275 1060.64441144 C736.52032786 1058.05136643 735.04205657 1055.43991055 733.57102728 1052.82165753 C716.33625094 1022.17158407 696.75650522 992.27665073 675.59837103 964.18493878 C674.98091009 963.36074445 674.36344915 962.53655011 673.72727728 961.68738019 C661.94846511 945.99090753 649.72205352 930.71106306 636.97092962 915.79577862 C635.56518535 914.14599194 634.16909994 912.48839133 632.77415228 910.82947003 C622.87240021 899.10090632 612.43389673 887.87320572 601.48899603 877.11072003 C599.67602184 875.26403352 598.01123656 873.35415474 596.34837103 871.37243878 C592.71406047 867.1295925 588.63558584 863.44017399 584.50877142 859.68884503 C581.18144451 856.66095359 577.94359401 853.57941567 574.78587103 850.37243878 C571.53920721 847.08445379 568.1908739 843.99723373 564.68430853 840.98962628 C562.34811602 838.96842602 560.06872252 836.89115039 557.78587103 834.80993878 C553.46711446 830.91252431 549.02075052 827.21193523 544.49680853 823.55603253 C541.96931376 821.48839193 539.48486723 819.37915813 537.01121283 817.24768292 C529.82441147 811.07174821 522.34415787 805.3668725 514.71409369 799.75183331 C512.63581712 798.21267118 510.57466931 796.65298683 508.51633978 795.08728253 C485.3313165 777.56581691 460.77772081 761.67628694 435.59837103 747.18493878 C434.79480169 746.72232648 433.99123236 746.25971417 433.16331244 745.78308331 C428.01635313 742.83899193 422.82434579 739.98609636 417.59837103 737.18493878 C416.34467718 736.51180646 416.34467718 736.51180646 415.06565619 735.8250755 C341.13170064 696.30608333 261.23332082 668.72330167 50.59837103 638.18493878 C49.86931555 638.14257092 49.14026007 638.10020306 48.389112 638.05655133 C28.65826064 636.9286362 8.91655467 636.98401197 -10.83912897 636.99743878 C-11.71829603 636.99770566 -12.59746309 636.99797253 -13.50327158 636.9982475 C-38.70270705 637.00785024 -63.84748821 637.0693131 -88.98671198 639.00134503 C-91.60335209 639.20027475 -94.22063983 639.38847577 -96.83815241 639.57556378 C-196.37400575 646.7575976 -294.30436249 664.64014369 -736.78419733 807.13171612 C-737.70788614 807.51584668 -738.63157495 807.89997723 -739.58325434 808.29574811 C-741.29182349 809.00683174 -742.99984981 809.71922189 -744.70718622 810.43326031 C-746.2216846 811.06404043 -747.74011209 811.6854939 -749.26285028 812.29611432 C-750.68116858 812.88553294 -752.08049189 813.52305126 -753.45532465 814.20779645 C-756.26301797 815.51394632 -758.30220464 816.40996273 -761.39811945 815.77630841 C-763.59394086 814.89110422 -765.61456354 813.85332226 -767.68678522 812.70837628 C-768.46436686 812.30849499 -769.24194849 811.90861371 -770.0430932 811.49661481 C-772.53128635 810.21022039 -774.99737575 808.88690528 -777.46412897 807.55993878 C-779.86535331 806.30000855 -782.27065896 805.04811829 -784.67613459 803.79632794 C-786.33321059 802.93301491 -787.98862458 802.06650551 -789.64250422 801.19708478 C-795.70497199 798.02129652 -801.83591005 795.02415117 -808.02272272 792.09900128 C-817.64965782 787.54211824 -827.19292403 782.8324925 -836.71412897 778.05993878 C-837.42994576 777.70127351 -838.14576254 777.34260823 -838.88327074 776.97307431 C-844.8042092 774.00564174 -850.72253387 771.03301065 -856.64076471 768.06018292 C-861.78902837 765.47438945 -866.93826261 762.89054417 -872.08912897 760.30993878 C-872.80710657 759.95018964 -873.52508417 759.59044049 -874.26481867 759.21978986 C-882.77280159 754.95996186 -891.30192288 750.75741453 -899.90162897 746.68493878 C-909.23464952 742.26519472 -918.48207618 737.68574201 -927.71412897 733.05993878 C-928.43122034 732.70067303 -929.14831171 732.34140729 -929.88713312 731.9712547 C-935.80678547 729.00443169 -941.72380538 726.03237195 -947.64076471 723.06018292 C-952.78902837 720.47438945 -957.93826261 717.89054417 -963.08912897 715.30993878 C-963.80710657 714.95018964 -964.52508417 714.59044049 -965.26481867 714.21978986 C-973.77280159 709.95996186 -982.30192288 705.75741453 -990.90162897 701.68493878 C-1000.23464952 697.26519472 -1009.48207618 692.68574201 -1018.71412897 688.05993878 C-1019.43122034 687.70067303 -1020.14831171 687.34140729 -1020.88713312 686.9712547 C-1026.80678547 684.00443169 -1032.72380538 681.03237195 -1038.64076471 678.06018292 C-1043.78902837 675.47438945 -1048.93826261 672.89054417 -1054.08912897 670.30993878 C-1054.80710657 669.95018964 -1055.52508417 669.59044049 -1056.26481867 669.21978986 C-1064.77280159 664.95996186 -1073.30192288 660.75741453 -1081.90162897 656.68493878 C-1091.23464952 652.26519472 -1100.48207618 647.68574201 -1109.71412897 643.05993878 C-1110.43122034 642.70067303 -1111.14831171 642.34140729 -1111.88713312 641.9712547 C-1117.80678547 639.00443169 -1123.72380538 636.03237195 -1129.64076471 633.06018292 C-1134.78902837 630.47438945 -1139.93826261 627.89054417 -1145.08912897 625.30993878 C-1145.80710657 624.95018964 -1146.52508417 624.59044049 -1147.26481867 624.21978986 C-1155.77280159 619.95996186 -1164.30192288 615.75741453 -1172.90162897 611.68493878 C-1182.23464952 607.26519472 -1191.48207618 602.68574201 -1200.71412897 598.05993878 C-1201.43122034 597.70067303 -1202.14831171 597.34140729 -1202.88713312 596.9712547 C-1208.80678547 594.00443169 -1214.72380538 591.03237195 -1220.64076471 588.06018292 C-1225.78902837 585.47438945 -1230.93826255 582.89054404 -1236.08912897 580.30993878 C-1236.80718966 579.95014809 -1237.52525034 579.59035741 -1238.26507044 579.21966397 C-1246.7677685 574.96248284 -1255.29154179 570.76249052 -1263.88600397 566.69275128 C-1273.27172823 562.24828019 -1282.57062391 557.64144213 -1291.85475397 552.98962628 C-1292.93784594 552.44700021 -1292.93784594 552.44700021 -1294.04281855 551.89341199 C-1299.24719112 549.28511248 -1304.44960306 546.67291462 -1309.65162897 544.05993878 C-1315.59305605 541.07560914 -1321.53526737 538.09285783 -1327.47975397 535.11462628 C-1328.53992983 534.58339783 -1328.53992983 534.58339783 -1329.62152338 534.0414375 C-1340.47837021 528.60539679 -1351.38359017 523.28816392 -1362.40162897 518.18493878 C-1360.79344246 514.76344445 -1359.16026837 512.85041365 -1356.27662897 510.37243878 C-1351.60444178 506.27414742 -1347.04913546 502.07283873 -1342.52662897 497.80993878 C-1336.87468539 492.49309588 -1331.18611183 487.22252881 -1325.45631647 481.98962628 C-1321.93622106 478.76654617 -1318.45032719 475.50709384 -1314.96412897 472.24743878 C-1307.61228184 465.37382132 -1300.22046396 458.54458087 -1292.8176446 451.72595441 C-1286.49312435 445.89930537 -1280.18452586 440.05647464 -1273.90162897 434.18493878 C-1266.56976687 427.33311676 -1259.1987794 420.52460755 -1251.8176446 413.72595441 C-1245.49312435 407.89930537 -1239.18452586 402.05647464 -1232.90162897 396.18493878 C-1225.56976687 389.33311676 -1218.1987794 382.52460755 -1210.8176446 375.72595441 C-1204.49312435 369.89930537 -1198.18452586 364.05647464 -1191.90162897 358.18493878 C-1184.56976687 351.33311676 -1177.1987794 344.52460755 -1169.8176446 337.72595441 C-1163.49312435 331.89930537 -1157.18452586 326.05647464 -1150.90162897 320.18493878 C-1143.56976687 313.33311676 -1136.1987794 306.52460755 -1128.8176446 299.72595441 C-1122.49312435 293.89930537 -1116.18452586 288.05647464 -1109.90162897 282.18493878 C-1102.56976687 275.33311676 -1095.1987794 268.52460755 -1087.8176446 261.72595441 C-1081.49312435 255.89930537 -1075.18452586 250.05647464 -1068.90162897 244.18493878 C-1061.56976687 237.33311676 -1054.1987794 230.52460755 -1046.8176446 223.72595441 C-1040.49312435 217.89930537 -1034.18452586 212.05647464 -1027.90162897 206.18493878 C-1020.56976687 199.33311676 -1013.1987794 192.52460755 -1005.8176446 185.72595441 C-999.49312435 179.89930537 -993.18452586 174.05647464 -986.90162897 168.18493878 C-979.56976687 161.33311676 -972.1987794 154.52460755 -964.8176446 147.72595441 C-958.49312435 141.89930537 -952.18452586 136.05647464 -945.90162897 130.18493878 C-938.56976687 123.33311676 -931.1987794 116.52460755 -923.8176446 109.72595441 C-917.49312435 103.89930537 -911.18452586 98.05647464 -904.90162897 92.18493878 C-897.56976687 85.33311676 -890.1987794 78.52460755 -882.8176446 71.72595441 C-876.49312435 65.89930537 -870.18452586 60.05647464 -863.90162897 54.18493878 C-857.62477132 48.31904674 -851.32193576 42.48221647 -845.00319147 36.66150128 C-843.3637474 35.15001382 -841.72617935 33.63651824 -840.08912897 32.12243878 C-839.5343487 31.60955304 -838.97956842 31.0966673 -838.40797663 30.56823956 C-836.89266583 29.16722339 -835.37760575 27.76593607 -833.86256647 26.36462628 C-833.33043606 25.89025854 -832.79830564 25.4158908 -832.25005007 24.92714828 C-830.28308657 23.11906364 -830.28308657 23.11906364 -828.1720891 20.72380333 C-823.49458191 15.86392769 -819.81182597 12.57772492 -812.79155207 12.03234421 C-810.83968828 12.02209635 -808.88706669 12.0154557 -806.93602014 12.07285421 C-804.62457184 12.13985034 -802.31897085 12.14381477 -800.00659609 12.13644689 C-796.29973006 12.12868359 -792.5938445 12.14543843 -788.88707972 12.17287599 C-781.62447154 12.20702472 -774.36619577 12.07914643 -767.10518122 11.94004857 C-766.41935377 11.92707352 -765.73352632 11.91409848 -765.02691622 11.90073025 C-762.14959894 11.84627904 -759.27228658 11.79158699 -756.39498673 11.73622187 C-747.73367164 11.57066759 -739.0718996 11.43518787 -730.41008234 11.29898297 C-728.72567924 11.27231006 -727.04127658 11.24560949 -725.35687435 11.21888207 C-722.77130245 11.17786363 -720.1857302 11.13686817 -717.60015637 11.09597112 C-708.52331674 10.95237928 -699.44651734 10.80630616 -690.36971723 10.66024119 C-671.55833083 10.35761838 -652.74690077 10.05777532 -633.93545473 9.75888591 C-619.39206558 9.52780395 -604.84868704 9.29606492 -590.30531549 9.06387746 C-586.09919981 8.99673389 -581.89308408 8.92959376 -577.68696833 8.86245482 C-576.64092587 8.84575754 -575.59488342 8.82906026 -574.51714271 8.811857 C-545.14422541 8.34302342 -515.77129379 7.87509635 -486.39833307 7.40899026 C-485.29376989 7.39146195 -484.1892067 7.37393364 -483.0511719 7.35587417 C-477.45446332 7.26706167 -471.85775464 7.17825562 -466.26104593 7.08945088 C-464.5941524 7.06300148 -464.5941524 7.06300148 -462.89358425 7.03601774 C-460.64634578 7.00035976 -458.39910731 6.96470235 -456.15186882 6.92904552 C-421.22302763 6.37480659 -386.29424201 5.817174 -351.36549616 5.25696027 C-312.00119253 4.62560791 -272.63684412 3.99714784 -233.2724309 3.37266391 C-229.06128534 3.30584722 -224.85013996 3.23901955 -220.63899469 3.17218434 C-219.08399295 3.14750738 -219.08399295 3.14750738 -217.49757703 3.1223319 C-200.93948724 2.85949907 -184.38144156 2.59398388 -167.82341035 2.32748945 C-151.13260735 2.05893424 -134.44175525 1.79360883 -117.75085151 1.53138809 C-108.73965676 1.38973936 -99.72848722 1.24681587 -90.71737528 1.09998547 C-28.76515437 0.09213232 -28.76515437 0.09213232 0 0 Z " fill="#002660" transform="translate(2063.4016289711,457.8150612190366)"/>
<path d="M0 0 C0.33 0 0.66 0 1 0 C0.8550291 2.37505522 0.70902146 4.75004028 0.5625 7.125 C0.52318359 7.77082031 0.48386719 8.41664063 0.44335938 9.08203125 C0.40146484 9.75878906 0.35957031 10.43554688 0.31640625 11.1328125 C0.26983887 11.88884766 0.22327148 12.64488281 0.17529297 13.42382812 C0.04949332 15.27262748 -0.09421385 17.12024138 -0.24951172 18.96679688 C-1.09714041 29.39584863 -1.24317924 39.79053932 -1.25 50.25 C-1.25067474 51.18830658 -1.25134949 52.12661316 -1.25204468 53.09335327 C-1.1515381 141.91956798 25.37180788 233.56659552 85 301 C85.81597656 301.92683594 86.63195313 302.85367188 87.47265625 303.80859375 C90.74098315 307.48068725 94.03279296 311.07750369 97.5625 314.5 C100 317 100 317 100 319 C100.54527344 319.21527344 101.09054687 319.43054687 101.65234375 319.65234375 C104.80379225 321.46141153 107.07822067 323.95733116 109.5625 326.5625 C115.05164328 332.16855794 120.79967413 337.18101255 127 342 C127.6094043 342.48049805 128.21880859 342.96099609 128.84667969 343.45605469 C200.3933297 399.82933563 289.13308949 426.49767791 411 440 C411.72098877 440.06058594 412.44197754 440.12117188 413.18481445 440.18359375 C460.02310131 444.09266603 508.15514861 443.37006871 555 440 C556.3463855 439.90525391 556.3463855 439.90525391 557.7199707 439.80859375 C661.00193632 432.51494737 763.21044401 414.23992928 863.66259766 389.45581055 C864.8412439 389.16568085 866.01989014 388.87555115 867.23425293 388.57662964 C869.43000535 388.03498679 871.62497255 387.49014621 873.81896973 386.94143677 C878.87245347 385.69251743 883.82859008 384.60965247 889 384 C907.36834513 424.36428532 907.36834513 424.36428532 915.94750977 444.32592773 C920.75293636 455.4853537 925.68230733 466.58827814 930.625 477.6875 C932.35551983 481.57419601 934.086009 485.46090566 935.81640625 489.34765625 C936.24838318 490.31787216 936.68036011 491.28808807 937.12542725 492.28770447 C941.62263157 502.39210863 946.09506846 512.50740429 950.5625 522.625 C950.95205872 523.50715179 951.34161743 524.38930359 951.74298096 525.29818726 C953.70931858 529.75107081 955.67531508 534.20410485 957.64111328 538.65722656 C961.19582888 546.70923086 964.75379789 554.75979765 968.31149292 562.81048584 C970.29112581 567.29026622 972.27055257 571.77013767 974.25 576.25 C975.04166568 578.0416671 975.83333234 579.83333377 976.625 581.625 C1055.0000017 759.00000384 1055.0000017 759.00000384 1096.56234741 853.06216431 C1097.35451321 854.85495415 1098.14668851 856.64773979 1098.93887329 858.44052124 C1100.91048106 862.90246903 1102.88192688 867.36448823 1104.85302734 871.82666016 C1108.50516403 880.09390463 1112.15877486 888.36048681 1115.8180542 896.62457275 C1117.51384606 900.4545996 1119.20873516 904.28502564 1120.90356445 908.11547852 C1121.69820279 909.91076076 1122.49326484 911.70585554 1123.28881836 913.50073242 C1125.49040797 918.46797097 1127.68097268 923.43984063 1129.8614502 928.41638184 C1131.09260329 931.21013709 1132.34096014 933.99591835 1133.58886719 936.78222656 C1134.43215047 938.69052999 1135.27493687 940.59905308 1136.1171875 942.5078125 C1136.52059357 943.39822235 1136.92399963 944.2886322 1137.33963013 945.20602417 C1137.70305511 946.03667389 1138.0664801 946.86732361 1138.44091797 947.72314453 C1138.92961868 948.81926559 1138.92961868 948.81926559 1139.42819214 949.93753052 C1140.10773895 952.38860656 1139.9353845 953.65065673 1139 956 C1136.88061523 957.60888672 1136.88061523 957.60888672 1134.05859375 959.1796875 C1133.01251953 959.77136719 1131.96644531 960.36304687 1130.88867188 960.97265625 C1129.74978516 961.60042969 1128.61089844 962.22820313 1127.4375 962.875 C1126.25114644 963.54153497 1125.06560929 964.20952497 1123.88085938 964.87890625 C1121.44255228 966.25569035 1119.00131865 967.6270605 1116.55810547 968.99511719 C1111.33286095 971.92942159 1106.1679644 974.96631864 1101 978 C1087.27124426 986.02571079 1073.48919359 993.95859799 1059.70898438 1001.89550781 C1048.12318234 1008.56956312 1036.54446647 1015.25464084 1025 1022 C1011.26944812 1030.02267511 997.48922034 1037.95858259 983.70898438 1045.89550781 C972.12318234 1052.56956312 960.54446647 1059.25464084 949 1066 C935.26944812 1074.02267511 921.48922034 1081.95858259 907.70898438 1089.89550781 C896.12318234 1096.56956312 884.54446647 1103.25464084 873 1110 C859.26944812 1118.02267511 845.48922034 1125.95858259 831.70898438 1133.89550781 C820.12318234 1140.56956312 808.54446647 1147.25464084 797 1154 C783.26944812 1162.02267511 769.48922034 1169.95858259 755.70898438 1177.89550781 C744.12318234 1184.56956312 732.54446647 1191.25464084 721 1198 C709.46290313 1204.74105315 697.89148271 1211.42166894 686.31298828 1218.09130859 C681.83608295 1220.67056032 677.36017817 1223.25154122 672.88525391 1225.83422852 C670.69219866 1227.09865941 668.49788649 1228.36091308 666.30224609 1229.62084961 C661.28665642 1232.50264416 656.29508645 1235.4114267 651.35546875 1238.421875 C650.48784912 1238.94426758 649.62022949 1239.46666016 648.72631836 1240.00488281 C647.12877 1240.96942843 645.53901736 1241.94706358 643.95922852 1242.94042969 C642.90433228 1243.57319824 642.90433228 1243.57319824 641.828125 1244.21875 C641.2290332 1244.58935547 640.62994141 1244.95996094 640.01269531 1245.34179688 C635.21250456 1246.91158269 630.44672615 1244.52907775 626.046875 1242.62109375 C624.88945801 1242.1211792 623.73204102 1241.62126465 622.53955078 1241.10620117 C621.27604974 1240.55068891 620.01287663 1239.99443031 618.75 1239.4375 C618.09352478 1239.15000885 617.43704956 1238.8625177 616.76068115 1238.5663147 C591.90994677 1227.67742364 567.52898436 1215.85317111 543.25 1203.75 C542.2534137 1203.25438568 541.25682739 1202.75877136 540.2300415 1202.24813843 C526.78885327 1195.55501892 513.53432901 1188.58021148 500.39141846 1181.31921387 C497.66027228 1179.81259093 494.92200615 1178.31944852 492.18191528 1176.82917786 C476.33711588 1168.20762334 460.73496224 1159.25047077 445.27001953 1149.96142578 C442.02749111 1148.01648974 438.77836091 1146.08305086 435.52734375 1144.15234375 C421.85433775 1136.0165911 408.37074625 1127.62257477 395 1119 C393.45969327 1118.01032662 391.91933116 1117.02073943 390.37890625 1116.03125 C368.900447 1102.20895356 347.79511266 1087.82973298 327 1073 C325.93579834 1072.24299805 325.93579834 1072.24299805 324.85009766 1071.47070312 C313.15704467 1063.14140511 301.70104718 1054.52257797 290.31640625 1045.77734375 C288.32933463 1044.25269352 286.33815918 1042.73377738 284.34375 1041.21875 C277.01586335 1035.63214335 269.85364143 1029.86127325 262.71875 1024.03125 C259.76888609 1021.62150201 256.79819922 1019.24029419 253.8125 1016.875 C249.43024887 1013.38243409 245.15612494 1009.77137929 240.89038086 1006.13842773 C237.42308292 1003.1892611 233.91686906 1000.29726874 230.375 997.4375 C225.61479947 993.56420728 221.07195216 989.49240008 216.5546875 985.33984375 C214.37302185 983.34165152 212.16988691 981.37851111 209.9375 979.4375 C205.23940102 975.34929622 200.61412553 971.18258861 196 967 C195.25580811 966.32565918 195.25580811 966.32565918 194.49658203 965.63769531 C189.12484221 960.76349497 183.79827671 955.87366342 178.72167969 950.68920898 C177.11577617 949.11359264 175.46120334 947.6757127 173.73828125 946.23046875 C167.52446489 940.8231234 161.77592947 934.92464705 155.96362305 929.09399414 C153.94235732 927.0673702 151.91580426 925.04614453 149.88867188 923.02539062 C138.14743526 911.2895758 138.14743526 911.2895758 133.34790039 905.56225586 C131.81338822 903.78371151 130.17669144 902.14440536 128.5 900.5 C125.50765625 897.55399785 122.74675828 894.47016993 120.0078125 891.2890625 C118.05671325 889.06465752 116.05891092 886.88902402 114.04638672 884.72021484 C109.31137002 879.61433459 104.80483809 874.39672734 100.4375 868.96875 C97.57073197 865.47717355 94.60206682 862.08490453 91.625 858.6875 C86.01479315 852.25915488 80.68531918 845.66118789 75.47607422 838.90576172 C73.88128521 836.84672715 72.27187709 834.7997111 70.66015625 832.75390625 C62.49145662 822.36348422 54.64419917 811.78120544 47 801 C46.4328125 800.20335938 45.865625 799.40671875 45.28125 798.5859375 C26.63875391 772.36992737 9.61792046 745.1227933 -6 717 C-6.56799316 715.9790625 -7.13598633 714.958125 -7.72119141 713.90625 C-29.83528928 673.94115757 -47.45012585 632.26155081 -62 589 C-62.36931641 587.906875 -62.73863281 586.81375 -63.11914062 585.6875 C-77.89355794 541.39249741 -86.79605175 495.32595591 -92 449 C-92.08463501 448.26358276 -92.16927002 447.52716553 -92.25646973 446.76843262 C-97.63476953 399.66404075 -97.2925322 350.09065287 -92 303 C-91.91514343 302.23067139 -91.83028687 301.46134277 -91.74285889 300.66870117 C-83.11960435 222.92927065 -62.72268538 147.13538193 -15.125 31.375 C-14.82411469 30.71138458 -14.52322937 30.04776917 -14.21322632 29.36404419 C-9.70862511 19.45676912 -4.91873287 9.70773035 0 0 Z " fill="#032663" transform="translate(1423,2796)"/>
</svg>
