<?xml version="1.0" encoding="UTF-8"?>
<svg version="1.1" xmlns="http://www.w3.org/2000/svg" width="4500" height="4500">
<path d="M0 0 C10.81607744 2.50179485 21.08586538 6.62320351 31.4375 10.5625 C32.41453888 10.93282349 33.39157776 11.30314697 34.39822388 11.68469238 C89.37179926 32.54362406 143.26183413 56.03163449 196.0020752 82.01568604 C198.00054665 83.00026931 199.99977546 83.98330325 201.99902344 84.96630859 C217.31135299 92.50343456 232.46625632 100.266506 247.38769531 108.55712891 C250.04930794 110.02723457 252.72168098 111.47563878 255.3984375 112.91796875 C268.1105996 119.77381314 280.62262115 126.93194646 293.0625 134.26953125 C295.89198201 135.93636706 298.72648285 137.59431385 301.5625 139.25 C343.76117173 163.94677924 384.52803608 191.16112239 424 220 C424.76763672 220.55896973 425.53527344 221.11793945 426.32617188 221.69384766 C441.61697412 232.83527649 456.59530396 244.33379903 471.23852539 256.31445312 C475.48978857 259.78972154 479.78918836 263.19357618 484.125 266.5625 C490.68946857 271.67789952 496.9921252 277.06852435 503.27978516 282.51806641 C506.0824477 284.93250887 508.91823239 287.30734329 511.75 289.6875 C516.49870793 293.6889638 521.14987236 297.78523717 525.74609375 301.9609375 C527.7688269 303.79086247 529.81369435 305.58881728 531.875 307.375 C535.78795588 310.78305835 539.60915399 314.28855279 543.42602539 317.80322266 C546.69711109 320.81355094 549.99484153 323.79087083 553.3125 326.75 C556.72443283 329.80822368 559.99144182 332.95773471 563.19715881 336.229599 C564.9322281 337.93344758 566.72371979 339.50944084 568.57592773 341.08422852 C573.66067614 345.50922458 578.40098011 350.25745396 583.16015625 355.02734375 C584.1182986 355.98481025 585.07658916 356.94212845 586.03501892 357.89930725 C588.03091287 359.89373747 590.02501452 361.88993741 592.01782227 363.88745117 C594.55141863 366.42674399 597.08947983 368.96151903 599.62891483 371.49497128 C601.60490703 373.46732184 603.57847679 375.44208263 605.55135918 377.41754341 C606.93410599 378.80126628 608.3188393 380.18300314 609.70362854 381.56468201 C614.12656859 386.00393661 618.42052561 390.48940583 622.47947693 395.26539612 C624.08128407 397.09272839 625.76527979 398.79903088 627.5 400.5 C630.47057406 403.42467115 633.20729119 406.48619561 635.92578125 409.64453125 C638.01435124 412.01629717 640.15532807 414.32888367 642.31201172 416.63842773 C647.33686148 422.0204013 652.11132227 427.50850099 656.72265625 433.25390625 C659.21828563 436.26321578 661.83804891 439.13899881 664.5 442 C668.6763123 446.49922305 672.6451714 451.11750707 676.49609375 455.8984375 C678.99293735 458.99125156 681.52191745 462.05508229 684.05737305 465.11621094 C690.33574451 472.70254132 696.5066765 480.35973325 702.54882812 488.13525391 C704.11653958 490.14975257 705.69080809 492.15902058 707.265625 494.16796875 C723.54649572 514.97066271 739.21106984 536.2019276 754.3125 557.875 C754.95823975 558.80159424 755.60397949 559.72818848 756.26928711 560.68286133 C766.83447983 575.90491067 776.90982761 591.46074513 787 607 C787.54172852 607.83418457 788.08345703 608.66836914 788.64160156 609.52783203 C798.50759658 624.78217818 807.67194497 640.4660931 816.88946533 656.11676025 C818.53505786 658.90734874 820.18812902 661.69350079 821.83984375 664.48046875 C833.6630645 684.50282185 844.52026735 705.02980715 855.22265625 725.66796875 C856.9173271 728.93257432 858.62829134 732.18662591 860.37109375 735.42578125 C874.26764983 761.30172148 886.55365617 787.98593361 898.31922913 814.88473511 C900.16545921 819.10551239 902.03070008 823.31687878 903.91796875 827.51953125 C943.57266857 916.033326 973.85027237 1009.19755244 1069.83856201 1605.36022949 C1069.99467886 1608.88002983 1070.15735361 1612.39947888 1070.32080078 1615.91894531 C1073.99474242 1696.78447066 1073.7172768 1778.49861937 1070.15820312 1859.36456299 C1069.99578789 1863.09679246 1069.84259696 1866.82931167 1069.69140625 1870.56201172 C1066.4444719 1950.01700062 1060.13865461 2029.3580573 960.67028809 2606.42712402 C960.05780247 2608.77812734 959.47076792 2611.13378092 958.89160156 2613.49316406 C958.56901367 2614.74581055 958.24642578 2615.99845703 957.9140625 2617.2890625 C957.53048584 2618.8352124 957.53048584 2618.8352124 957.13916016 2620.41259766 C954.98435704 2625.30685471 950.4141707 2627.47690829 945.88671875 2629.9609375 C944.89881348 2630.50741943 943.9109082 2631.05390137 942.89306641 2631.61694336 C941.83522949 2632.19710205 940.77739258 2632.77726074 939.6875 2633.375 C931.10425772 2638.12788471 922.57987089 2642.95988151 914.125 2647.9375 C904.52475656 2653.57967194 894.82045664 2659.01213764 885.07128906 2664.39208984 C876.61248188 2669.07243587 868.2516336 2673.90186334 859.91796875 2678.80078125 C851.79188766 2683.56693713 843.58240211 2688.17197811 835.35058594 2692.75244141 C828.2234156 2696.72836053 821.16045222 2700.80173218 814.125 2704.9375 C804.52293764 2710.57981859 794.81779042 2716.01402817 785.06689453 2721.39428711 C777.65084148 2725.49727022 770.30484825 2729.70245979 763 2734 C754.56777394 2738.96079169 746.06579665 2743.77364413 737.5 2748.5 C728.89397014 2753.2490629 720.34975791 2758.08284722 711.875 2763.0625 C702.85557669 2768.36219078 693.76740851 2773.52142823 684.62963867 2778.61401367 C676.78872856 2782.98772681 668.97968285 2787.41522019 661.1875 2791.875 C660.60604218 2792.20769897 660.02458435 2792.54039795 659.42550659 2792.88317871 C655.2827758 2795.25389051 651.14123961 2797.62668456 647 2800 C642.27165982 2802.70977867 637.54270072 2805.4184702 632.8125 2808.125 C632.23176727 2808.45737671 631.65103455 2808.78975342 631.05270386 2809.13220215 C622.81270322 2813.84634438 614.54232039 2818.50351899 606.25 2823.125 C597.10783915 2828.22086682 588.0514195 2833.44811224 579.02514648 2838.74609375 C570.7879407 2843.56905697 562.47468471 2848.2467535 554.13793945 2852.89501953 C545.00862258 2857.98624609 535.92905085 2863.16042475 526.86132812 2868.36035156 C521.38985222 2871.49571267 515.91325642 2874.62212268 510.4375 2877.75 C500.53694548 2883.40538537 500.53694548 2883.40538537 490.64134216 2889.06942749 C487.69881899 2890.75535957 484.75579528 2892.44041628 481.8125 2894.125 C481.23212982 2894.45719543 480.65175964 2894.78939087 480.05380249 2895.13165283 C471.81343001 2899.84596644 463.54267647 2904.50332054 455.25 2909.125 C446.10554429 2914.22214598 437.04640908 2919.44998746 428.01855469 2924.75048828 C419.85740626 2929.53005592 411.61523139 2934.15366602 403.35107422 2938.75219727 C396.22371733 2942.72815635 389.16060908 2946.80163998 382.125 2950.9375 C372.52293764 2956.57981859 362.81779042 2962.01402817 353.06689453 2967.39428711 C345.65084148 2971.49727022 338.30484825 2975.70245979 331 2980 C322.56777394 2984.96079169 314.06579665 2989.77364413 305.5 2994.5 C296.89397014 2999.2490629 288.34975791 3004.08284722 279.875 3009.0625 C270.85557669 3014.36219078 261.76740851 3019.52142823 252.62963867 3024.61401367 C244.78872856 3028.98772681 236.97968285 3033.41522019 229.1875 3037.875 C228.60604218 3038.20769897 228.02458435 3038.54039795 227.42550659 3038.88317871 C223.2827758 3041.25389051 219.14123961 3043.62668456 215 3046 C210.27165982 3048.70977867 205.54270072 3051.4184702 200.8125 3054.125 C200.23176727 3054.45737671 199.65103455 3054.78975342 199.05270386 3055.13220215 C190.81270322 3059.84634438 182.54232039 3064.50351899 174.25 3069.125 C165.10783915 3074.22086682 156.0514195 3079.44811224 147.02514648 3084.74609375 C138.7879407 3089.56905697 130.47468471 3094.2467535 122.13793945 3098.89501953 C113.00862258 3103.98624609 103.92905085 3109.16042475 94.86132812 3114.36035156 C89.38985222 3117.49571267 83.91325642 3120.62212268 78.4375 3123.75 C68.53706554 3129.40531319 68.53706554 3129.40531319 58.6415863 3135.06929016 C55.69898031 3136.75526546 52.75584498 3138.4403152 49.8125 3140.125 C49.2374472 3140.45420441 48.66239441 3140.78340881 48.06991577 3141.12258911 C38.47254552 3146.61425166 28.83741096 3152.03460925 19.16723633 3157.39697266 C14.21171967 3160.15471663 9.35712866 3162.9652351 4.64746094 3166.12817383 C3 3167 3 3167 0 3167 C-11.43291386 3134.79297929 -22.32453302 3102.40437552 -33.21557617 3070.01123047 C-34.41566506 3066.44231963 -35.61594741 3062.87347392 -36.81640625 3059.3046875 C-37.26007255 3057.985648 -37.26007255 3057.985648 -37.7127018 3056.63996124 C-43.65255297 3038.98590142 -49.66717872 3021.35771429 -55.6971159 3003.73425674 C-57.97971126 2997.06224725 -60.25427002 2990.38752643 -62.5234375 2983.7109375 C-62.84677063 2982.75962448 -63.17010376 2981.80831146 -63.50323486 2980.82817078 C-64.13743561 2978.96178404 -64.77154138 2977.09536502 -65.4055481 2975.22891235 C-67.1720272 2970.02867857 -68.93961189 2964.82882052 -70.70703125 2959.62890625 C-71.06516403 2958.57517319 -71.42329681 2957.52144012 -71.7922821 2956.43577576 C-75.54548381 2945.39347944 -79.30353274 2934.35283474 -83.0625 2923.3125 C-83.5545694 2921.86722931 -83.5545694 2921.86722931 -84.05657959 2920.39276123 C-85.70969971 2915.53737453 -87.36288759 2910.68201091 -89.01611328 2905.82666016 C-92.01081463 2897.03141946 -95.00487638 2888.23596103 -97.99899292 2879.44052124 C-99.6659697 2874.54367212 -101.33298687 2869.64683675 -103 2864.75 C-103.66666686 2862.79166673 -104.33333353 2860.8333334 -105 2858.875 C-105.33 2857.905625 -105.66 2856.93625 -106 2855.9375 C-125.00000041 2800.12499879 -125.00000041 2800.12499879 -126.00001526 2797.18745422 C-126.66663029 2795.22927321 -127.33324609 2793.27109247 -127.99986267 2791.31291199 C-129.66732577 2786.41475027 -131.33477536 2781.51658395 -133.00219727 2776.6184082 C-135.99267791 2767.8336918 -138.9832493 2759.04900636 -141.97433472 2750.26449585 C-149.51188745 2728.12744869 -157.04486991 2705.98885634 -164.57147217 2683.8480835 C-170.38766926 2666.73902735 -176.20789974 2649.6313485 -182.03320312 2632.52539062 C-182.69010929 2630.59635591 -183.34701033 2628.66731945 -184.00390625 2626.73828125 C-184.32912262 2625.78325714 -184.65433899 2624.82823303 -184.9894104 2623.8442688 C-187.06123176 2617.75939752 -189.13116327 2611.67388635 -191.19981384 2605.5879364 C-192.62400958 2601.39811821 -194.04879117 2597.20849933 -195.47360229 2593.01889038 C-196.140984 2591.05595516 -196.80809286 2589.09292716 -197.47488403 2587.12979126 C-198.10235561 2585.28247078 -198.73031459 2583.43531577 -199.35877991 2581.58833313 C-199.96839714 2579.79521848 -200.57628824 2578.00151596 -201.18235779 2576.2071991 C-202.83500549 2571.33395442 -204.54363877 2566.48720628 -206.31640625 2561.65625 C-206.69631714 2560.60711426 -207.07622803 2559.55797852 -207.46765137 2558.47705078 C-208.20351524 2556.44997514 -208.95148104 2554.42724098 -209.7130127 2552.40966797 C-210.04168335 2551.49846191 -210.370354 2550.58725586 -210.70898438 2549.6484375 C-211.00687866 2548.84583496 -211.30477295 2548.04323242 -211.61169434 2547.21630859 C-212.31840435 2543.18266285 -209.61493626 2540.30041897 -207.41796875 2537.0859375 C-206.90476074 2536.33417236 -206.39155273 2535.58240723 -205.86279297 2534.80786133 C-205.30994629 2534.00501709 -204.75709961 2533.20217285 -204.1875 2532.375 C-203.32342529 2531.11562622 -203.32342529 2531.11562622 -202.44189453 2529.83081055 C-197.96529115 2523.33481028 -193.3700601 2516.93115228 -188.73046875 2510.55102539 C-184.85414308 2505.21117712 -181.07724598 2499.81292975 -177.35693359 2494.36352539 C-174.10004273 2489.59372265 -170.80802766 2484.84981297 -167.50048828 2480.11499023 C-158.50829245 2467.23685769 -149.66357077 2454.26158179 -140.87060547 2441.24707031 C-138.82464776 2438.21909229 -136.77646057 2435.1926348 -134.72705078 2432.16699219 C-117.61877074 2406.90726991 -100.68296519 2381.5427519 -84 2356 C-83.28875977 2354.91106445 -82.57751953 2353.82212891 -81.84472656 2352.70019531 C-78.66157604 2347.82154662 -75.48732092 2342.9372523 -72.32373047 2338.04589844 C-71.00040571 2336.00062705 -69.67434485 2333.95715317 -68.34765625 2331.9140625 C-56.09456338 2313.0311028 -43.97071818 2294.0632282 -32 2275 C-31.43490723 2274.10023438 -30.86981445 2273.20046875 -30.28759766 2272.2734375 C-10.35722433 2240.51464451 9.21927602 2208.53883432 28.31762695 2176.27294922 C29.06591075 2175.00878479 29.81420168 2173.74462458 30.5625 2172.48046875 C31.11095329 2171.55375618 31.11095329 2171.55375618 31.67048645 2170.60832214 C34.31291465 2166.14793194 36.97680745 2161.70076117 39.6484375 2157.2578125 C43.35325226 2151.0941938 47.00899522 2144.903735 50.625 2138.6875 C51.21345703 2137.67679443 51.80191406 2136.66608887 52.40820312 2135.62475586 C54.27395787 2132.41755892 56.13736142 2129.2090076 58 2126 C58.61713867 2124.93749023 59.23427734 2123.87498047 59.87011719 2122.78027344 C67.90218939 2108.94097533 75.81493909 2095.04085746 83.609375 2081.06640625 C86.31613621 2076.21537782 89.04638107 2071.37822183 91.78808594 2066.546875 C104.85761491 2043.51233286 117.5567806 2020.28222928 129.99023438 1996.8984375 C131.03693925 1994.93055135 132.08478565 1992.96327615 133.1328125 1990.99609375 C135.01429078 1987.46366609 136.89273393 1983.92963678 138.76934814 1980.3946228 C139.47347018 1979.06864615 140.17812428 1977.7429518 140.88348389 1976.41763306 C155.27894842 1949.35646072 169.09792326 1921.99304769 182.80371094 1894.57788086 C184.43896916 1891.30728269 186.07706767 1888.03813241 187.71777344 1884.77026367 C197.3347895 1865.61429706 206.73983185 1846.40198254 215.66101074 1826.91098022 C217.5849386 1822.7283358 219.55257676 1818.56712226 221.53125 1814.41015625 C221.86380295 1813.71059814 222.1963559 1813.01104004 222.53898621 1812.2902832 C223.19280352 1810.9150908 223.84678825 1809.53997798 224.50094604 1808.16494751 C231.91921495 1792.55365754 239.11346723 1776.85637934 246.09558105 1761.04455566 C247.05609009 1758.87320112 248.02033036 1756.70353248 248.98535156 1754.53417969 C276.10033597 1693.56050779 301.04746139 1631.65864653 324 1569 C324.33177246 1568.09449402 324.66354492 1567.18898804 325.00537109 1566.25604248 C359.49096218 1471.97310192 388.41458873 1375.71858491 453 973 C453.0483902 972.06218689 453.0967804 971.12437378 453.14663696 970.15814209 C454.20776319 948.98855161 454.20129131 927.81523438 454.1875 906.625 C454.18723312 905.70577003 454.18696625 904.78654007 454.18669128 903.83945465 C454.17649663 875.84668578 453.97617466 847.93449021 452 820 C451.86970585 818.09245378 451.73950099 816.18490145 451.609375 814.27734375 C445.19529217 721.73358763 429.57287853 629.77533943 316.50097656 340.63916016 C314.61582209 337.32450175 312.80517332 333.97286991 310.99804688 330.61523438 C300.34280828 310.87684157 288.17821039 292.0903642 275.75 273.4375 C275.00685043 272.32121216 275.00685043 272.32121216 274.24868774 271.18237305 C264.51929818 256.59060824 254.58992708 242.14023295 243.875 228.25 C242.85345825 226.91835815 242.85345825 226.91835815 241.8112793 225.55981445 C240.4733286 223.81636642 239.13412193 222.07388128 237.79345703 220.33251953 C236.26107308 218.33954427 234.73546434 216.34179552 233.21484375 214.33984375 C223.65074347 201.78987802 213.62889999 189.60779955 203.37695312 177.61523438 C201.95878654 175.95165457 200.54924683 174.28104124 199.140625 172.609375 C192.31839121 164.54260589 185.21605931 156.78390638 177.96166992 149.10522461 C176.5296904 147.56845306 175.11256108 146.0178053 173.7043457 144.45922852 C166.21935619 136.18271316 158.41193059 128.25858251 150.51049805 120.38012695 C148.30205337 118.1770789 146.09905449 115.96868531 143.89648438 113.75976562 C142.46907076 112.33301235 141.04134723 110.90656905 139.61328125 109.48046875 C138.96724442 108.83240768 138.32120758 108.18434662 137.65559387 107.51664734 C133.83528818 103.71562228 129.90623564 100.09577287 125.81994629 96.58183289 C122.8644434 94.01301441 120.03556951 91.31150899 117.1875 88.625 C112.22026907 83.97684467 107.14423967 79.55521464 101.83203125 75.30078125 C98.55797922 72.64089623 95.3750231 69.88728621 92.1875 67.125 C85.94935564 61.74793102 79.56674881 56.59809686 73.04199219 51.57373047 C71.59501319 50.45856708 70.15060555 49.34006358 68.70800781 48.21923828 C49.94284913 33.64613677 30.69300543 19.99486543 10.37109375 7.671875 C6.84977711 5.53115603 3.36625123 3.37874479 0 1 C0 0.67 0 0.34 0 0 Z " fill="#FFFFFF" transform="translate(2734,504)"/>
<path d="M0 0 C1.48185791 0.83422485 1.48185791 0.83422485 2.99365234 1.68530273 C4.05148926 2.29059814 5.10932617 2.89589355 6.19921875 3.51953125 C7.30861816 4.14738525 8.41801758 4.77523926 9.56103516 5.42211914 C17.98990988 10.20731753 26.35769391 15.09581687 34.71533203 20.00415039 C43.41313113 25.09594264 52.21287207 29.99309625 61.03295898 34.86914062 C70.41993841 40.0609914 79.74304044 45.35642656 89.04443359 50.69970703 C94.57208981 53.87423971 100.10378049 57.04171693 105.63671875 60.20703125 C106.23003998 60.54658844 106.82336121 60.88614563 107.43466187 61.23599243 C115.8078981 66.02623999 124.20999375 70.76130864 132.63671875 75.45703125 C141.73608152 80.52823177 150.74638619 85.73500344 159.72753906 91.01220703 C168.34783822 96.05874995 177.07438891 100.90084314 185.81982422 105.72631836 C193.2358806 109.82930331 200.5818065 114.03459595 207.88671875 118.33203125 C217.51990352 123.99766775 227.25301261 129.4625004 237.03344727 134.86938477 C246.42023705 140.06120222 255.74319797 145.35651705 265.04443359 150.69970703 C270.57208981 153.87423971 276.10378049 157.04171693 281.63671875 160.20703125 C282.23003998 160.54658844 282.82336121 160.88614563 283.43466187 161.23599243 C291.8078981 166.02623999 300.20999375 170.76130864 308.63671875 175.45703125 C317.73608152 180.52823177 326.74638619 185.73500344 335.72753906 191.01220703 C344.34783822 196.05874995 353.07438891 200.90084314 361.81982422 205.72631836 C369.2358806 209.82930331 376.5818065 214.03459595 383.88671875 218.33203125 C393.51990352 223.99766775 403.25301261 229.4625004 413.03344727 234.86938477 C422.42023705 240.06120222 431.74319797 245.35651705 441.04443359 250.69970703 C446.57208981 253.87423971 452.10378049 257.04171693 457.63671875 260.20703125 C458.23003998 260.54658844 458.82336121 260.88614563 459.43466187 261.23599243 C467.8078981 266.02623999 476.20999375 270.76130864 484.63671875 275.45703125 C493.73608152 280.52823177 502.74638619 285.73500344 511.72753906 291.01220703 C519.21973031 295.39832682 526.78584159 299.63750925 534.38671875 303.83203125 C564.89091514 320.66816218 564.89091514 320.66816218 574.88671875 327.33203125 C573.52481422 330.35640716 571.97383668 332.5232739 569.68359375 334.9140625 C569.0400293 335.59114258 568.39646484 336.26822266 567.73339844 336.96582031 C567.04149414 337.68479492 566.34958984 338.40376953 565.63671875 339.14453125 C564.17807975 340.67679241 562.71975216 342.20935007 561.26171875 343.7421875 C560.52695313 344.51191895 559.7921875 345.28165039 559.03515625 346.07470703 C555.88002376 349.38974737 552.75615516 352.73343151 549.63671875 356.08203125 C549.06276367 356.69731689 548.48880859 357.31260254 547.89746094 357.9465332 C543.7231232 362.42472942 539.56889505 366.92120456 535.42041016 371.42333984 C528.68153803 378.73175679 521.88419712 385.98576486 515.09570312 393.24804688 C509.00903219 399.76045217 502.92705831 406.27659279 496.88671875 412.83203125 C489.6615658 420.67331983 482.37681806 428.45876252 475.09570312 436.24804688 C469.00903219 442.76045217 462.92705831 449.27659279 456.88671875 455.83203125 C449.6615658 463.67331983 442.37681806 471.45876252 435.09570312 479.24804688 C429.00903219 485.76045217 422.92705831 492.27659279 416.88671875 498.83203125 C409.6615658 506.67331983 402.37681806 514.45876252 395.09570312 522.24804688 C389.00903219 528.76045217 382.92705831 535.27659279 376.88671875 541.83203125 C369.6615658 549.67331983 362.37681806 557.45876252 355.09570312 565.24804688 C349.00903219 571.76045217 342.92705831 578.27659279 336.88671875 584.83203125 C329.6615658 592.67331983 322.37681806 600.45876252 315.09570312 608.24804688 C309.00903219 614.76045217 302.92705831 621.27659279 296.88671875 627.83203125 C289.6615658 635.67331983 282.37681806 643.45876252 275.09570312 651.24804688 C269.00903219 657.76045217 262.92705831 664.27659279 256.88671875 670.83203125 C249.6615658 678.67331983 242.37681806 686.45876252 235.09570312 694.24804688 C229.00903219 700.76045217 222.92705831 707.27659279 216.88671875 713.83203125 C209.6615658 721.67331983 202.37681806 729.45876252 195.09570312 737.24804688 C189.00903219 743.76045217 182.92705831 750.27659279 176.88671875 756.83203125 C169.6615658 764.67331983 162.37681806 772.45876252 155.09570312 780.24804688 C149.00903219 786.76045217 142.92705831 793.27659279 136.88671875 799.83203125 C129.6615658 807.67331983 122.37681806 815.45876252 115.09570312 823.24804688 C109.00903219 829.76045217 102.92705831 836.27659279 96.88671875 842.83203125 C89.6615658 850.67331983 82.37681806 858.45876252 75.09570312 866.24804688 C71.02253621 870.6061129 66.95215548 874.96675246 62.88671875 879.33203125 C62.3261377 879.9338623 61.76555664 880.53569336 61.18798828 881.15576172 C59.56481909 882.90025392 57.9440893 884.64697619 56.32421875 886.39453125 C55.84774902 886.9064502 55.3712793 887.41836914 54.88037109 887.94580078 C52.68362673 890.32072291 50.79158322 892.49135588 49.12670898 895.27954102 C44.84311411 900.379012 37.61959266 900.7854545 31.42578125 902.07421875 C29.94700846 902.40026398 28.46874083 902.7286077 26.99095154 903.05908203 C23.82670429 903.76286137 20.65994294 904.4532038 17.49050903 905.13323975 C9.87985181 906.76846907 2.28691184 908.48327207 -5.30800438 910.18982315 C-7.90224518 910.77213957 -10.4970264 911.35200059 -13.09187317 911.93161011 C-76.31226136 926.08275827 -138.92297528 943.73639463 -200.60101318 963.52783203 C-203.11622131 964.33297239 -205.63321053 965.1322763 -208.15087891 965.9296875 C-292.13010292 992.54145551 -373.77358381 1025.49651557 -501.71484375 1090.26171875 C-505.68583968 1092.52946546 -509.68032125 1094.74607168 -513.69628906 1096.93286133 C-533.00979882 1107.47911312 -551.76820014 1119.19024541 -570.11328125 1131.33203125 C-571.29674817 1132.10826633 -572.48034073 1132.88430987 -573.6640625 1133.66015625 C-590.25473345 1144.581779 -606.59885195 1155.91544435 -622.36816406 1167.99560547 C-624.04718611 1169.28141502 -625.73183915 1170.55946971 -627.41796875 1171.8359375 C-635.51603599 1177.98943544 -643.40683369 1184.3878422 -651.27539062 1190.83056641 C-652.91983688 1192.17399686 -654.57082077 1193.50941556 -656.22265625 1194.84375 C-661.55058298 1199.1557585 -666.71243036 1203.60102052 -671.78125 1208.21484375 C-673.87152014 1210.11254294 -675.9831424 1211.9793654 -678.11328125 1213.83203125 C-684.72482714 1219.60210767 -691.26482179 1225.40015063 -697.4140625 1231.6640625 C-699.18995999 1233.40729981 -701.03573874 1235.02611161 -702.92578125 1236.64453125 C-709.94880636 1242.71482039 -716.3722051 1249.35302673 -722.40234375 1256.40234375 C-724.23127988 1258.46511646 -726.14908583 1260.39793845 -728.11328125 1262.33203125 C-731.9934374 1266.16775813 -735.56953734 1270.18626135 -739.11328125 1274.33203125 C-739.99563605 1275.35065706 -740.8784877 1276.36885262 -741.76171875 1277.38671875 C-775.91623521 1316.84856797 -804.58267893 1359.73748393 -828.11328125 1406.33203125 C-828.57589355 1407.24645996 -829.03850586 1408.16088867 -829.51513672 1409.10302734 C-866.95600345 1483.70564892 -884.82332731 1567.76714145 -883.11328125 1713.33203125 C-883.01853516 1714.36635284 -883.01853516 1714.36635284 -882.921875 1715.42156982 C-875.22489737 1798.57203798 -853.44092542 1879.35886229 -801.11328125 2007.33203125 C-800.5709082 2008.51974121 -800.02853516 2009.70745117 -799.46972656 2010.93115234 C-787.7428394 2036.55623361 -775.40774292 2061.87814829 -761.68505859 2086.50048828 C-759.98657117 2089.56029834 -758.30889837 2092.63099065 -756.6328125 2095.703125 C-748.17521173 2111.14694962 -739.22810386 2126.21843431 -730.01171875 2141.21679688 C-728.36250603 2143.92306672 -726.74258387 2146.64224114 -725.14453125 2149.37890625 C-716.67862131 2163.85931277 -707.30552026 2177.72220477 -697.94416809 2191.63246155 C-694.91317609 2196.13643402 -691.90435654 2200.65440835 -688.91040039 2205.18310547 C-682.83235964 2214.36746851 -676.52367978 2223.37718523 -670.11328125 2232.33203125 C-669.57525879 2233.08548828 -669.03723633 2233.83894531 -668.48291016 2234.61523438 C-661.97928265 2243.71458282 -655.39450358 2252.72679339 -648.50878906 2261.54199219 C-646.89994461 2263.6056814 -645.29947855 2265.67574107 -643.69921875 2267.74609375 C-637.9195484 2275.21435583 -632.10682899 2282.6389941 -626.08984375 2289.91796875 C-623.02246232 2293.66429627 -620.06203726 2297.49201136 -617.11328125 2301.33203125 C-621.45820252 2301.33203125 -624.3425577 2299.00475636 -627.92578125 2296.76953125 C-628.71766846 2296.2799292 -629.50955566 2295.79032715 -630.32543945 2295.28588867 C-640.46650839 2288.94956683 -650.28728665 2282.14207702 -660.11328125 2275.33203125 C-662.07289881 2273.9791408 -664.03253434 2272.62627638 -665.9921875 2271.2734375 C-683.32082974 2259.28708606 -700.35247558 2246.99430277 -717.078125 2234.1796875 C-721.46166861 2230.82269612 -725.87433127 2227.50711277 -730.30078125 2224.20703125 C-742.5237853 2215.06998716 -754.54367608 2205.68116309 -766.35327148 2196.01586914 C-770.58135434 2192.55911504 -774.86014212 2189.17849314 -779.17578125 2185.83203125 C-784.85248221 2181.41735872 -790.29966738 2176.77431534 -795.70800781 2172.03613281 C-799.39169026 2168.811224 -803.11768141 2165.66069225 -806.92578125 2162.58203125 C-811.28986651 2159.04950729 -815.45413681 2155.34531684 -819.6015625 2151.5625 C-822.10786869 2149.33683774 -824.68252518 2147.23681564 -827.30078125 2145.14453125 C-833.37079115 2140.23851472 -839.00305601 2134.90199612 -844.6796875 2129.55078125 C-847.73766899 2126.67113407 -850.8651092 2123.89039118 -854.046875 2121.1484375 C-858.57702748 2117.1663564 -862.9682327 2113.02725744 -867.39013672 2108.92578125 C-869.09646665 2107.34758321 -870.80884033 2105.77624004 -872.5234375 2104.20703125 C-878.08545932 2099.11053175 -883.57069984 2093.98529576 -888.8203125 2088.5625 C-890.6982589 2086.73574124 -892.60383458 2085.04542725 -894.59423828 2083.34667969 C-899.8605382 2078.75002897 -904.77626338 2073.81374097 -909.7109375 2068.8671875 C-910.71392028 2067.86488044 -911.71705128 2066.86272169 -912.72032166 2065.86070251 C-914.81037263 2063.77211591 -916.89863013 2061.68175737 -918.9855957 2059.59008789 C-921.64025995 2056.92972715 -924.29939009 2054.27388283 -926.95989323 2051.61936283 C-929.02853074 2049.55436519 -931.09474824 2047.48695921 -933.16027641 2045.41885185 C-934.1390013 2044.43946714 -935.11844931 2043.46080444 -936.0986805 2042.48292732 C-941.13834931 2037.45271246 -946.07315821 2032.39253399 -950.69358826 2026.97190857 C-952.71592523 2024.63592145 -954.90049405 2022.48658721 -957.11328125 2020.33203125 C-960.5725995 2016.90896334 -963.84245871 2013.42244522 -967.00390625 2009.7265625 C-969.96873883 2006.36092848 -973.04409239 2003.10237371 -976.11328125 1999.83203125 C-980.87863889 1994.74510783 -985.59066792 1989.63740458 -990.11328125 1984.33203125 C-992.07057445 1982.03947456 -994.02918599 1979.74804811 -995.98828125 1977.45703125 C-996.5083374 1976.84811035 -997.02839355 1976.23918945 -997.56420898 1975.61181641 C-1000.59285959 1972.07483761 -1003.66515308 1968.58768162 -1006.80078125 1965.14453125 C-1010.59835374 1960.95833824 -1014.18394069 1956.63184111 -1017.73828125 1952.23828125 C-1020.27993503 1949.12809965 -1022.87936591 1946.07314284 -1025.48828125 1943.01953125 C-1030.24759383 1937.43034725 -1034.80328311 1931.70193483 -1039.3125 1925.91015625 C-1041.64066674 1922.92319731 -1044.01020722 1919.97226959 -1046.39208984 1917.02807617 C-1053.55532303 1908.16140569 -1060.38039517 1899.05551507 -1067.18554688 1889.91259766 C-1069.08377289 1887.37153269 -1070.99453392 1884.8404691 -1072.91015625 1882.3125 C-1080.94781096 1871.69346952 -1088.70986152 1860.91879904 -1096.28466797 1849.96533203 C-1098.19592375 1847.21302163 -1100.12359593 1844.4727996 -1102.0546875 1841.734375 C-1110.5484833 1829.66262539 -1118.66909684 1817.41375858 -1126.49902344 1804.90185547 C-1128.01654625 1802.48602892 -1129.54932777 1800.0808987 -1131.08984375 1797.6796875 C-1139.78057552 1784.1058983 -1147.98103174 1770.24496008 -1156.11328125 1756.33203125 C-1156.92563232 1754.94346924 -1156.92563232 1754.94346924 -1157.75439453 1753.52685547 C-1179.3981476 1716.41035833 -1199.29785759 1677.88294721 -1216.11328125 1638.33203125 C-1216.41538513 1637.62318787 -1216.71748901 1636.91434448 -1217.02874756 1636.184021 C-1250.55797278 1557.39750472 -1274.62580401 1475.21997982 -1293.11328125 1324.33203125 C-1293.16167145 1323.61006561 -1293.21006165 1322.88809998 -1293.25991821 1322.14425659 C-1294.3342656 1305.70072925 -1294.31446246 1289.24062545 -1294.30078125 1272.76953125 C-1294.30051437 1272.04937458 -1294.3002475 1271.32921791 -1294.29997253 1270.58723831 C-1294.29001172 1249.15940233 -1294.16847428 1227.79317743 -1292.296875 1206.43225098 C-1292.10012244 1204.18150108 -1291.91132643 1201.93015199 -1291.72265625 1199.67871094 C-1285.23473833 1123.3549344 -1268.75470526 1048.72548488 -1243.81060791 976.36016846 C-1243.15242172 974.44586922 -1242.5005697 972.52939552 -1241.84912109 970.61279297 C-1223.80804515 917.62682495 -1199.86966874 865.10917868 -1171.56494141 816.82519531 C-1170.09232841 814.29604564 -1168.65139688 811.75119656 -1167.21875 809.19921875 C-1148.77592981 776.38959662 -1127.99113827 744.94357713 -1106.11328125 714.33203125 C-1105.55850098 713.5534375 -1105.0037207 712.77484375 -1104.43212891 711.97265625 C-1097.94859599 702.8849445 -1091.36396735 693.89838805 -1084.49121094 685.10009766 C-1082.93456943 683.1027203 -1081.3870175 681.09846937 -1079.83984375 679.09375 C-1069.82994988 666.14264639 -1059.61624467 653.3753051 -1048.99755859 640.91723633 C-1046.13185981 637.55258486 -1043.32760892 634.14523994 -1040.55078125 630.70703125 C-1036.67748853 625.94683072 -1032.60568133 621.40398341 -1028.453125 616.88671875 C-1026.45493277 614.7050531 -1024.49179236 612.50191816 -1022.55078125 610.26953125 C-1015.87725176 602.60041694 -1009.01393359 595.10047553 -1002.13238525 587.61819458 C-1000.21751125 585.53602008 -998.30766107 583.44945459 -996.40252686 581.35836792 C-989.05224548 573.31337475 -981.46612437 565.53696309 -973.75390625 557.83984375 C-972.512123 556.59738415 -971.27048798 555.35477638 -970.0289917 554.11203003 C-967.45242184 551.53400147 -964.87409219 548.95775025 -962.29443359 546.3828125 C-959.00756265 543.10166799 -955.72524432 539.81601149 -952.44421768 536.52902412 C-949.89111686 533.97229357 -947.33561929 531.41796925 -944.77941132 528.86434555 C-943.56836579 527.65396107 -942.35804584 526.44285013 -941.14850616 525.23096085 C-934.97698778 519.05007186 -928.76579028 513.00020538 -922.11328125 507.33203125 C-920.69701685 506.0303437 -919.28837162 504.72020253 -917.89453125 503.39453125 C-917.18941406 502.72679687 -916.48429687 502.0590625 -915.7578125 501.37109375 C-915.05011719 500.69820312 -914.34242188 500.0253125 -913.61328125 499.33203125 C-908.80072148 494.75615475 -903.9438249 490.26385244 -898.92626953 485.91308594 C-896.5095914 483.80557077 -894.15602062 481.63278893 -891.80078125 479.45703125 C-887.26153165 475.3127716 -882.57869829 471.40624727 -877.796875 467.546875 C-875.16619568 465.37570298 -872.63385701 463.12961768 -870.11328125 460.83203125 C-865.88963848 456.9869225 -861.52630195 453.36444954 -857.0859375 449.7734375 C-853.77576579 447.05483393 -850.53836538 444.2611463 -847.30078125 441.45703125 C-842.14355045 437.00376316 -836.88202023 432.72343213 -831.50024414 428.54516602 C-827.02116033 425.0640546 -822.62387411 421.49242054 -818.23828125 417.89453125 C-812.35148999 413.07961239 -806.35501025 408.44887857 -800.24780273 403.91772461 C-795.20560832 400.17169269 -790.2444416 396.33190807 -785.30078125 392.45703125 C-776.04574934 385.22098884 -766.6128322 378.24276726 -757.11328125 371.33203125 C-756.34983398 370.77628418 -755.58638672 370.22053711 -754.79980469 369.64794922 C-744.70581036 362.30901651 -734.54754039 355.06384576 -724.33349609 347.89306641 C-722.03447328 346.27662129 -719.73976311 344.65417719 -717.4453125 343.03125 C-705.36491737 334.50670403 -693.1090699 326.26531711 -680.78222656 318.10205078 C-677.83897314 316.15011268 -674.90357536 314.18673127 -671.96972656 312.22070312 C-649.35513639 297.07865309 -626.31286469 282.55764164 -603.11328125 268.33203125 C-602.04835449 267.67831543 -600.98342773 267.02459961 -599.88623047 266.35107422 C-585.17644109 257.33348983 -570.37297025 248.51500236 -555.3984375 239.94140625 C-550.32360635 237.03525967 -545.27589227 234.08581775 -540.23583984 231.11987305 C-518.27802361 218.21221315 -495.86006447 206.12577365 -473.40966797 194.1015625 C-469.99573651 192.26893213 -466.58733575 190.4263157 -463.1796875 188.58203125 C-450.63984867 181.80509064 -438.02943241 175.2114741 -425.25415039 168.88769531 C-419.13381882 165.85574994 -413.06976672 162.74728895 -407.05078125 159.51953125 C-394.98696115 153.0819293 -382.62362474 147.23573096 -370.30238342 141.31170654 C-365.91067621 139.19996948 -361.52523281 137.07591958 -357.14453125 134.94140625 C-341.63463533 127.39822891 -325.98594711 120.1939309 -310.26306152 113.10908508 C-305.78434908 111.09014488 -301.31377061 109.05447602 -296.84765625 107.0078125 C-213.0656908 68.70764816 -126.99196968 34.93097987 -39.61328125 5.76953125 C-38.86942169 5.5211853 -38.12556213 5.27283936 -37.35916138 5.01696777 C-33.24848966 3.64699242 -29.13330995 2.29206184 -25.01220703 0.95379639 C-23.12943719 0.33732119 -21.25216933 -0.29587524 -19.375 -0.92919922 C-18.22644531 -1.3057666 -17.07789063 -1.68233398 -15.89453125 -2.0703125 C-14.89486328 -2.40409912 -13.89519531 -2.73788574 -12.86523438 -3.08178711 C-7.78068946 -4.16482405 -4.39422433 -2.49042735 0 0 Z " fill="#FFFFFF" transform="translate(1988.11328125,1514.66796875)"/>
<path d="M0 0 C2.15544616 -0.00522271 4.31088846 -0.01270716 6.46631713 -0.02283879 C23.84248107 -0.09483486 40.90673341 0.96042556 58.10467864 3.47290265 C61.41766984 3.95345077 64.73170157 4.42497676 68.04706145 4.88891827 C131.71082916 13.868124 194.68159923 28.26259745 255.83172942 48.15747296 C256.68774749 48.43570904 257.54376555 48.71394513 258.42572356 49.00061261 C292.50521383 60.11142101 326.0106373 72.73456191 358.83172942 87.15747296 C360.6311801 87.94613751 360.6311801 87.94613751 362.46698333 88.75073468 C393.77080686 102.51796842 424.84173384 117.37227887 454.3400302 134.70434796 C456.94711588 136.22476477 459.57166678 137.7103855 462.20282317 139.18872296 C480.39202082 149.41808792 497.77551452 160.73080219 515.14422942 172.28247296 C515.91372924 172.79362653 516.68322905 173.30478009 517.47604705 173.83142316 C530.18751313 182.28348151 542.71211855 190.95368783 554.89422942 200.15747296 C555.55704924 200.65674298 556.21986907 201.156013 556.90277434 201.67041241 C558.88133731 203.16316222 560.85718103 204.65941799 562.83172942 206.15747296 C563.72021575 206.83108868 563.72021575 206.83108868 564.62665129 207.5183128 C571.24146327 212.54324233 577.7610998 217.66868223 584.16766692 222.95825421 C585.91599654 224.40152338 587.67102552 225.83672311 589.43329192 227.26294171 C600.63810081 236.33586218 611.47971221 245.81753803 622.06219817 255.60669171 C624.66879949 258.00741197 627.30706766 260.36700738 629.95672942 262.71997296 C634.28487383 266.59726899 638.37056506 270.67645052 642.45282317 274.80981671 C645.1884151 277.50947312 648.05121746 280.01302694 650.96454192 282.51684796 C655.32814589 286.35097697 659.30311979 290.50059095 663.08172942 294.90747296 C666.01454488 298.31588012 669.13271603 301.50118519 672.33172942 304.65747296 C676.05773057 308.33893024 679.63029192 312.09042448 683.03094817 316.07544171 C685.20497144 318.58900874 687.4556343 321.02523525 689.70672942 323.46997296 C693.8005315 327.95895353 697.68642609 332.56990772 701.49969817 337.29809796 C703.53639777 339.79535778 705.61473855 342.24941652 707.7162509 344.69214093 C714.18259636 352.22330029 720.19785741 360.06207477 726.17889739 367.98120343 C727.79097806 370.103816 729.41917572 372.2128001 731.05438567 374.31762921 C757.13223623 407.94255797 780.09271316 444.22006975 800.42401458 481.57739484 C801.42650201 483.41476689 802.43459534 485.24908504 803.44647551 487.08130109 C825.23280353 526.55947191 843.36095144 567.82309444 858.83172942 610.15747296 C859.30739806 611.44841532 859.78331341 612.7392668 860.25946379 614.03003155 C893.75897201 705.06811197 912.82889197 801.21153879 928.21824981 1038.32704007 C928.2064841 1042.04754801 928.20000378 1045.76803583 928.19464446 1049.48855817 C928.13529366 1084.77084187 927.7044742 1119.91513605 925.05633879 1155.11114728 C924.82788204 1158.20965406 924.61626316 1161.30888836 924.40985442 1164.4089378 C918.30674211 1255.87569809 905.2615353 1346.85130541 877.83172942 1485.15747296 C875.09924609 1482.42498963 875.19413072 1479.70013405 874.78876067 1476.02075421 C874.60453525 1474.49890252 874.41994752 1472.97709467 874.23504973 1471.45532452 C874.13953826 1470.64518903 874.04402678 1469.83505353 873.94562102 1469.00036847 C863.65239789 1382.58148543 840.4920598 1296.34178751 773.83172942 1130.15747296 C773.51117583 1129.47618329 773.19062224 1128.79489361 772.86035491 1128.0929588 C759.73057451 1100.22861984 745.6277721 1072.94394687 729.82220794 1046.49194562 C728.28279593 1043.9131048 726.75396202 1041.32887252 725.22992278 1038.74096905 C718.38078632 1027.15973229 711.17123699 1015.86720234 703.67767669 1004.69311749 C701.89279935 1002.03033951 700.11667892 999.36187667 698.34149504 996.69262921 C683.38757423 974.27526685 667.3757168 952.73377304 650.27167083 931.91333234 C648.98807241 930.34811704 647.7120987 928.77665596 646.43719817 927.20434796 C637.200226 915.82040388 627.62865396 904.78392904 617.61175872 894.08105695 C616.24632343 892.60550289 614.89331962 891.11843693 613.54584075 889.6264671 C606.45707954 881.79974465 599.10236171 874.2736073 591.62396575 866.8193382 C589.63280165 864.8335762 587.64709721 862.84246556 585.66180754 860.85083234 C577.27966188 852.45633068 577.27966188 852.45633068 568.45404387 844.53467023 C565.89880415 842.36550435 563.47175899 840.06692707 561.01922942 837.78247296 C556.371344 833.48871916 551.58756594 829.42215456 546.65594817 825.45434796 C544.16923848 823.43196166 541.72846658 821.36542551 539.29901458 819.2749046 C531.75341157 812.79484903 523.90867454 806.74949918 515.9650302 800.76733624 C513.923617 799.22681454 511.89042952 797.67606399 509.85907317 796.12231671 C487.26843006 778.91147511 463.31019924 763.52777466 438.83172942 749.15747296 C438.0434677 748.69051007 437.25520598 748.22354718 436.44305754 747.7424339 C399.59956804 725.96027227 360.74636111 707.96634121 320.72845794 692.87304913 C318.92135614 692.19128631 317.11575957 691.50553766 315.31024504 690.81958234 C236.85140509 661.20989839 152.97471504 645.59803545 69.51922942 639.46997296 C68.69093627 639.40903455 67.86264312 639.34809613 67.00925017 639.2853111 C61.28562679 638.87033644 55.56006003 638.50096724 49.83172942 638.15747296 C49.04146361 638.10834759 48.2511978 638.05922223 47.43698455 638.00860821 C28.44241875 636.86208396 9.41605966 636.91191924 -9.60577058 636.90747296 C-10.90822913 636.90681018 -10.90822913 636.90681018 -12.23699998 636.906134 C-115.99321064 636.87854525 -219.27030739 650.11929376 -359.16827058 681.15747296 C-360.70880098 681.52745404 -360.70880098 681.52745404 -362.2804532 681.90490948 C-410.74604341 693.55095362 -458.69197515 706.97522743 -506.16827058 722.15747296 C-507.10850068 722.45784466 -508.04873079 722.75821637 -509.01745271 723.06769025 C-552.7559502 737.05550821 -596.25787345 751.79156374 -639.16827058 768.15747296 C-640.00191133 768.47502545 -640.83555207 768.79257794 -641.69445466 769.11975323 C-661.11777391 776.52206571 -680.50687071 784.0126715 -699.77700471 791.80621564 C-702.02896355 792.71420437 -704.28454036 793.61271947 -706.54058503 794.5105003 C-713.69252543 797.37810084 -720.73090858 800.37315183 -727.66601228 803.73607098 C-731.02481731 805.35923299 -734.40755955 806.92890969 -737.79211091 808.49753033 C-739.38802719 809.25662408 -740.97151968 810.042554 -742.53954744 810.85769879 C-743.65006471 811.43449887 -743.65006471 811.43449887 -744.78301667 812.02295148 C-745.42137452 812.36528317 -746.05973237 812.70761487 -746.7174344 813.06032025 C-752.33998342 815.32970806 -756.88408901 817.0446339 -762.7632718 814.71811139 C-764.37605054 813.96068504 -765.97580158 813.17506119 -767.56329011 812.36596905 C-768.86264765 811.74187807 -768.86264765 811.74187807 -770.18825483 811.10517918 C-772.86112565 809.81384206 -775.51478098 808.48809537 -778.16827058 807.15747296 C-779.73408558 806.39227749 -781.30079627 805.6289114 -782.86851167 804.867617 C-787.5361441 802.58858009 -792.17492396 800.25411949 -796.81280183 797.91528546 C-798.52252618 797.05726977 -800.23246709 796.19968548 -801.94260835 795.34250104 C-806.39211246 793.11119074 -810.83935325 790.87541187 -815.28588533 788.63818585 C-823.22968927 784.64190534 -831.17673082 780.65207464 -839.12530183 776.66528546 C-839.97864232 776.23710774 -840.83198281 775.80893002 -841.71118211 775.36777722 C-851.98335805 770.21602407 -862.28107746 765.13687637 -872.67091035 760.22561871 C-880.99806064 756.27492616 -889.24091994 752.1612183 -897.48077058 748.03247296 C-898.19842277 747.67292397 -898.91607496 747.31337498 -899.65547418 746.94293057 C-905.57455997 743.9763935 -911.49101408 741.00462127 -917.40740632 738.0327171 C-922.55566998 735.44692363 -927.70490422 732.86307835 -932.85577058 730.28247296 C-933.57374818 729.92272382 -934.29172578 729.56297467 -935.03146028 729.19232403 C-943.5394432 724.93249604 -952.06856449 720.72994871 -960.66827058 716.65747296 C-970.00129113 712.2377289 -979.24871778 707.65827619 -988.48077058 703.03247296 C-989.19786195 702.67320721 -989.91495332 702.31394147 -990.65377473 701.94378888 C-996.57342708 698.97696587 -1002.49044699 696.00490613 -1008.40740632 693.0327171 C-1013.55566998 690.44692363 -1018.70490422 687.86307835 -1023.85577058 685.28247296 C-1024.57374818 684.92272382 -1025.29172578 684.56297467 -1026.03146028 684.19232403 C-1034.5394432 679.93249604 -1043.06856449 675.72994871 -1051.66827058 671.65747296 C-1061.00129113 667.2377289 -1070.24871778 662.65827619 -1079.48077058 658.03247296 C-1080.19786195 657.67320721 -1080.91495332 657.31394147 -1081.65377473 656.94378888 C-1087.57342708 653.97696587 -1093.49044699 651.00490613 -1099.40740632 648.0327171 C-1104.55566998 645.44692363 -1109.70490422 642.86307835 -1114.85577058 640.28247296 C-1115.57374818 639.92272382 -1116.29172578 639.56297467 -1117.03146028 639.19232403 C-1125.5394432 634.93249604 -1134.06856449 630.72994871 -1142.66827058 626.65747296 C-1152.00129113 622.2377289 -1161.24871778 617.65827619 -1170.48077058 613.03247296 C-1171.19786195 612.67320721 -1171.91495332 612.31394147 -1172.65377473 611.94378888 C-1178.57342708 608.97696587 -1184.49044699 606.00490613 -1190.40740632 603.0327171 C-1195.55566998 600.44692363 -1200.70490422 597.86307835 -1205.85577058 595.28247296 C-1206.57374818 594.92272382 -1207.29172578 594.56297467 -1208.03146028 594.19232403 C-1216.5394432 589.93249604 -1225.06856449 585.72994871 -1233.66827058 581.65747296 C-1243.00129113 577.2377289 -1252.24871778 572.65827619 -1261.48077058 568.03247296 C-1262.19786195 567.67320721 -1262.91495332 567.31394147 -1263.65377473 566.94378888 C-1269.57342708 563.97696587 -1275.49044699 561.00490613 -1281.40740632 558.0327171 C-1286.55566997 555.44692363 -1291.70490119 552.86307229 -1296.85577058 550.28247296 C-1297.56724685 549.92598487 -1298.27872312 549.56949677 -1299.01175927 549.20220601 C-1309.72848626 543.83659732 -1320.50059353 538.60090415 -1331.32891511 533.4636253 C-1337.80092212 530.39049381 -1344.20798921 527.19445477 -1350.60577058 523.96997296 C-1351.74207917 523.3995628 -1352.87838777 522.82915265 -1354.04912996 522.24145734 C-1356.75649123 520.88206497 -1359.4628817 519.5207851 -1362.16827058 518.15747296 C-1360.82270891 515.12614945 -1359.36481927 513.14820994 -1356.92998933 510.90747296 C-1356.28151033 510.30540021 -1355.63303132 509.70332745 -1354.96490144 509.08301007 C-1353.92088166 508.1298692 -1353.92088166 508.1298692 -1352.85577058 507.15747296 C-1351.77597932 506.15889264 -1351.77597932 506.15889264 -1350.6743741 505.14013898 C-1348.51040992 503.14070208 -1346.33978392 501.14870397 -1344.16827058 499.15747296 C-1343.02707253 498.10470839 -1341.88639726 497.05137667 -1340.74639558 495.99731671 C-1338.64952408 494.05883965 -1336.55025393 492.12301359 -1334.44952058 490.18872296 C-1330.81915438 486.84101301 -1327.21262235 483.4679754 -1323.60577058 480.09497296 C-1318.18682879 475.02843791 -1312.73374976 470.00256198 -1307.25811433 464.99731671 C-1303.7277031 461.76101068 -1300.22918419 458.49078965 -1296.73077058 455.21997296 C-1289.37889299 448.34638779 -1281.98710585 441.51711531 -1274.58428621 434.69848859 C-1268.25976596 428.87183955 -1261.95116746 423.02900882 -1255.66827058 417.15747296 C-1248.33640848 410.30565094 -1240.96542101 403.49714173 -1233.58428621 396.69848859 C-1227.25976596 390.87183955 -1220.95116746 385.02900882 -1214.66827058 379.15747296 C-1207.33640848 372.30565094 -1199.96542101 365.49714173 -1192.58428621 358.69848859 C-1186.25976596 352.87183955 -1179.95116746 347.02900882 -1173.66827058 341.15747296 C-1166.33640848 334.30565094 -1158.96542101 327.49714173 -1151.58428621 320.69848859 C-1145.25976596 314.87183955 -1138.95116746 309.02900882 -1132.66827058 303.15747296 C-1125.33640848 296.30565094 -1117.96542101 289.49714173 -1110.58428621 282.69848859 C-1104.25976596 276.87183955 -1097.95116746 271.02900882 -1091.66827058 265.15747296 C-1084.33640848 258.30565094 -1076.96542101 251.49714173 -1069.58428621 244.69848859 C-1063.25976596 238.87183955 -1056.95116746 233.02900882 -1050.66827058 227.15747296 C-1043.33640848 220.30565094 -1035.96542101 213.49714173 -1028.58428621 206.69848859 C-1022.25976596 200.87183955 -1015.95116746 195.02900882 -1009.66827058 189.15747296 C-1002.33640848 182.30565094 -994.96542101 175.49714173 -987.58428621 168.69848859 C-981.25976596 162.87183955 -974.95116746 157.02900882 -968.66827058 151.15747296 C-961.33640848 144.30565094 -953.96542101 137.49714173 -946.58428621 130.69848859 C-940.25976596 124.87183955 -933.95116746 119.02900882 -927.66827058 113.15747296 C-920.33640848 106.30565094 -912.96542101 99.49714173 -905.58428621 92.69848859 C-899.25976596 86.87183955 -892.95116746 81.02900882 -886.66827058 75.15747296 C-879.33640848 68.30565094 -871.96542101 61.49714173 -864.58428621 54.69848859 C-858.25976438 48.8718381 -851.95135213 43.02881283 -845.66827058 37.15747296 C-840.82053146 32.62970837 -835.97107569 28.10386618 -831.10577058 23.59497296 C-830.59401277 23.11866437 -830.08225496 22.64235577 -829.55498933 22.15161359 C-828.10326841 20.80877174 -826.63591334 19.48289462 -825.16827058 18.15747296 C-824.41389679 17.29360439 -823.659523 16.42973582 -822.8822894 15.53968941 C-817.81071238 11.42173273 -811.03746792 12.4255361 -804.84162568 12.42091595 C-803.23386893 12.40073103 -801.62614256 12.3780106 -800.01845174 12.35312169 C-796.25732308 12.29851819 -792.49633758 12.25847203 -788.73495459 12.22597658 C-781.43901234 12.15733635 -774.14443247 12.02633345 -766.84943628 11.8930515 C-764.01679152 11.84183329 -761.18414103 11.79093971 -758.35148751 11.74020886 C-757.62447284 11.72718112 -756.89745816 11.71415339 -756.14841274 11.70073088 C-747.4876594 11.54660143 -738.82665031 11.40875613 -730.16561555 11.27151715 C-729.33566456 11.25834984 -728.50571357 11.24518252 -727.65061255 11.2316162 C-724.21799141 11.17717397 -720.78536941 11.1227866 -717.35274565 11.06851006 C-708.27388216 10.92490287 -699.19505848 10.77884115 -690.11623426 10.63277537 C-671.30096876 10.33015564 -652.48565964 10.03031348 -633.67033462 9.73142008 C-619.12455311 9.50034406 -604.57878231 9.26860443 -590.03301858 9.03641164 C-585.82632563 8.96926824 -581.61963262 8.90212811 -577.4129396 8.834989 C-576.366758 8.81829172 -575.32057639 8.80159444 -574.24269231 8.78439118 C-544.86620155 8.31556236 -515.48969654 7.84763499 -486.11316251 7.38152444 C-484.4561299 7.35523198 -484.4561299 7.35523198 -482.76562189 7.32840835 C-477.16826535 7.23959572 -471.5709087 7.15078966 -465.97355203 7.06198506 C-464.86215848 7.04435212 -463.75076493 7.02671919 -462.60569278 7.00855192 C-460.35818938 6.97289395 -458.11068597 6.93723654 -455.86318255 6.9015797 C-420.92763818 6.3472999 -385.99214858 5.78967299 -351.05669831 5.22949445 C-311.68617737 4.59820341 -272.31561253 3.96974648 -232.94498401 3.34519809 C-228.73357554 3.27838113 -224.52216724 3.21155348 -220.31075906 3.14471852 C-218.75565618 3.12004156 -218.75565618 3.12004156 -217.16913708 3.09486608 C-200.60713119 2.83198971 -184.04516847 2.56648513 -167.48321992 2.30002363 C-150.79019288 2.03152815 -134.09711764 1.76620077 -117.40399174 1.50392227 C-108.39089635 1.36223288 -99.37782559 1.2192926 -90.36481141 1.07251965 C-28.55437534 0.06745345 -28.55437534 0.06745345 0 0 Z " fill="#FFFFFF" transform="translate(2063.1682705804706,457.8425270393491)"/>
<path d="M0 0 C1.2758737 4.31669042 0.63283565 8.17400967 0.08203125 12.5703125 C-1.34254499 25.32839527 -1.35246068 38.05090483 -1.3125 50.875 C-1.30976578 52.69582596 -1.30976578 52.69582596 -1.30697632 54.55343628 C-1.26064159 72.89187709 -0.7214738 90.83929474 2 109 C2.26538574 110.84174805 2.26538574 110.84174805 2.53613281 112.72070312 C16.22518715 206.10889764 60.20971963 292.05321312 136.13232422 349.61669922 C152.55927645 361.72989143 169.96558245 372.46192829 188 382 C188.82274414 382.43666992 189.64548828 382.87333984 190.49316406 383.32324219 C257.86039392 418.78102251 334.67248516 434.07062033 410 440 C411.27439941 440.10441406 412.54879883 440.20882812 413.86181641 440.31640625 C459.65013306 443.90364018 506.68680862 443.4565412 552.4777832 440.18035889 C555.12617075 439.99097777 557.7749773 439.80826673 560.42382812 439.62548828 C664.25090037 432.34467756 767.0078847 413.2381485 867.96191406 388.36816406 C869.15042465 388.07619141 870.33893524 387.78421875 871.5634613 387.48339844 C873.79204172 386.93499344 876.01984144 386.38340279 878.24671936 385.828125 C879.22918137 385.58610352 880.21164337 385.34408203 881.22387695 385.09472656 C882.07867142 384.88221252 882.93346588 384.66969849 883.81416321 384.45074463 C886 384 886 384 889 384 C967.37499994 561.37499987 967.37499994 561.37499987 968.56248474 564.06246948 C969.35419831 565.85423962 970.14591584 567.64600802 970.93763733 569.43777466 C972.91611882 573.91534384 974.89453164 578.39294333 976.87280273 582.87060547 C980.44341017 590.95221515 984.01451323 599.03360391 987.58818054 607.11386108 C989.5799603 611.61742377 991.57133753 616.12116436 993.5625 620.625 C994.153228 621.96114349 994.153228 621.96114349 994.75588989 623.32427979 C1000.87821554 637.17449911 1006.96861538 651.03850687 1013.04763794 664.90777588 C1019.40649824 679.41127191 1025.82901919 693.88588492 1032.27023315 708.35296631 C1038.59314656 722.55636327 1044.86652128 736.78059943 1051.10449219 751.02148438 C1057.02488044 764.53439172 1062.99927723 778.02258882 1069 791.5 C1075.74722458 806.65402784 1082.44882817 821.82703301 1089.10449219 837.02148438 C1095.43771467 851.47665943 1101.83565239 865.90234435 1108.25540161 880.3192749 C1115.28322606 896.10414278 1122.25123636 911.91455484 1129.17773438 927.74414062 C1129.7066478 928.95157928 1129.7066478 928.95157928 1130.24624634 930.18341064 C1130.92147523 931.72604297 1131.59533578 933.26927513 1132.26766968 934.81317139 C1134.48406858 939.88693106 1136.81793981 944.89251745 1139.28735352 949.84912109 C1140.15841445 952.47811967 1140.23338946 953.51077858 1139 956 C1136.72875977 957.68481445 1136.72875977 957.68481445 1133.69140625 959.36328125 C1132.56508789 959.99508301 1131.43876953 960.62688477 1130.27832031 961.27783203 C1129.03974628 961.95611448 1127.80113862 962.63433552 1126.5625 963.3125 C1125.28792956 964.02313059 1124.01417609 964.73522829 1122.74121094 965.44873047 C1120.11613502 966.91911896 1117.48808397 968.38396671 1114.85791016 969.84521484 C1109.11863731 973.04156594 1103.43485646 976.33299188 1097.75 979.625 C1096.14813843 980.54986206 1096.14813843 980.54986206 1094.51391602 981.4934082 C1086.33925337 986.21507151 1078.18464469 990.97071666 1070.03369141 995.7331543 C1057.28993861 1003.17449495 1044.49676949 1010.53019894 1031.70898438 1017.89550781 C1020.12318234 1024.56956312 1008.54446647 1031.25464084 997 1038 C983.26944812 1046.02267511 969.48922034 1053.95858259 955.70898438 1061.89550781 C944.12318234 1068.56956312 932.54446647 1075.25464084 921 1082 C907.26944812 1090.02267511 893.48922034 1097.95858259 879.70898438 1105.89550781 C868.12318234 1112.56956312 856.54446647 1119.25464084 845 1126 C831.26944812 1134.02267511 817.48922034 1141.95858259 803.70898438 1149.89550781 C792.12318234 1156.56956312 780.54446647 1163.25464084 769 1170 C755.26944812 1178.02267511 741.48922034 1185.95858259 727.70898438 1193.89550781 C715.13748005 1201.13738151 702.57954248 1208.40088563 690.05395508 1215.72192383 C681.47768175 1220.73093085 672.88035445 1225.70313222 664.26269531 1230.640625 C659.39859142 1233.43278923 654.55917552 1236.24638883 649.79296875 1239.203125 C648.62689087 1239.91903809 648.62689087 1239.91903809 647.43725586 1240.64941406 C646.03193656 1241.5171701 644.63474748 1242.39831203 643.24829102 1243.29589844 C638.95704119 1245.93302345 636.82564865 1246.12091541 632 1245 C630.23904471 1244.38774623 628.49844893 1243.71426061 626.78125 1242.98828125 C625.78295166 1242.56788574 624.78465332 1242.14749023 623.75610352 1241.71435547 C622.68158936 1241.25174316 621.6070752 1240.78913086 620.5 1240.3125 C619.35781006 1239.82410645 618.21562012 1239.33571289 617.03881836 1238.83251953 C603.21394433 1232.86892181 589.58441773 1226.48900685 576 1220 C575.29689697 1219.6642395 574.59379395 1219.328479 573.86938477 1218.98254395 C546.17108976 1205.74249168 518.86131696 1191.87645841 492 1177 C491.0291748 1176.46439453 490.05834961 1175.92878906 489.05810547 1175.37695312 C473.6459131 1166.86511239 458.44229677 1158.03384882 443.33447266 1148.99365234 C440.0636792 1147.03807324 436.78820644 1145.09055131 433.51171875 1143.14453125 C397.39515792 1121.65285901 362.25006368 1098.35512455 328 1074 C327.23010742 1073.45456543 326.46021484 1072.90913086 325.66699219 1072.34716797 C313.22648935 1063.51731638 301.09705458 1054.29252953 289 1045 C287.75800729 1044.04922466 286.51584249 1043.09867404 285.2734375 1042.1484375 C282.17447863 1039.77567518 279.08515503 1037.39069581 276 1035 C275.4642334 1034.58508301 274.9284668 1034.17016602 274.37646484 1033.74267578 C259.94005318 1022.54237386 245.89992749 1010.85680562 232 999 C231.42121094 998.50757812 230.84242188 998.01515625 230.24609375 997.5078125 C223.48886439 991.75760004 216.78560035 985.96373371 210.21484375 980 C208.22587498 978.20396471 206.21436806 976.44046697 204.1875 974.6875 C199.05056095 970.21072982 194.06881848 965.56281666 189.08105469 960.92138672 C187.53284039 959.49195845 185.9745735 958.0734028 184.41113281 956.66064453 C174.59579551 947.75779579 165.24438283 938.39644609 155.88671875 929.01708984 C153.11311638 926.23809327 150.33416319 923.46452717 147.5546875 920.69140625 C145.76790819 918.90396663 143.98143885 917.1162171 142.1953125 915.328125 C141.37539825 914.51023499 140.55548401 913.69234497 139.71072388 912.84967041 C135.49609417 908.61797257 131.42683495 904.31918543 127.54290771 899.78102112 C124.83688681 896.65738622 121.96749565 893.68640473 119.125 890.6875 C114.2347467 885.49241316 109.59570282 880.18647242 105.140625 874.609375 C102.84879535 871.81568484 100.44768188 869.15791222 98 866.5 C93.10620521 861.17019892 88.53979483 855.63164422 84 850 C82.99065906 848.76994984 81.98017402 847.5408379 80.96875 846.3125 C69.2458397 832.04535597 58.33082267 817.2248272 47.58496094 802.21289062 C46.55898939 800.78044975 45.53111703 799.34936761 44.50097656 797.91992188 C-4.09194866 730.46761819 -42.07538911 655.16588481 -86.75 261.4375 C-73.32730173 180.22341465 -47.87935208 102.11130696 0 0 Z " fill="#FFFFFF" transform="translate(1423,2796)"/>
</svg>
