<?xml version="1.0" encoding="UTF-8"?>
<svg version="1.1" xmlns="http://www.w3.org/2000/svg" width="762" height="720">
<path d="M0 0 C2.50248468 2.19628942 4.87353133 4.46158753 7.2109375 6.83203125 C7.85804688 7.46882813 8.50515625 8.105625 9.171875 8.76171875 C19.193485 19.30847862 22.61182274 32.03097922 22.5859375 46.20703125 C22.58432617 47.1287915 22.58271484 48.05055176 22.58105469 49.00024414 C22.40810519 58.60318031 20.11352504 66.14078082 14.2109375 73.83203125 C13.5303125 74.78078125 12.8496875 75.72953125 12.1484375 76.70703125 C-1.1357804 92.17828502 -22.37330506 97.74666296 -41.7890625 99.83203125 C-46.66839264 100.1106055 -51.52753478 100.16526797 -56.4140625 100.14453125 C-57.71061768 100.14251709 -59.00717285 100.14050293 -60.34301758 100.13842773 C-71.79466026 100.01998937 -83.83008833 99.48502264 -94.7890625 95.83203125 C-90.74637385 112.09222587 -86.04959129 127.6512464 -70.87890625 136.82421875 C-54.5523956 144.69756407 -35.53722565 138.68325337 -19.359375 133.38671875 C-2.63893055 127.91356249 -2.63893055 127.91356249 6.3359375 131.76953125 C11.70597395 134.6727072 14.89868745 138.79784988 18.2109375 143.83203125 C3.52669403 161.99412185 -17.20494664 173.48764985 -40.48046875 176.60058594 C-66.34210701 179.19331363 -89.2801068 174.22524414 -109.7890625 157.83203125 C-129.20028115 141.93388591 -142.17732241 118.71066716 -145.03515625 93.67626953 C-147.92987387 64.06254655 -141.06225841 35.89888176 -122.7734375 12.22265625 C-93.78776446 -22.34544271 -35.53335088 -27.62046182 0 0 Z M-82.1640625 31.8046875 C-88.83218511 40.12381162 -94.30777137 52.0189464 -93.7890625 62.83203125 C-91.74794708 63.31354067 -89.70614318 63.79213208 -87.6640625 64.26953125 C-86.52710938 64.53636719 -85.39015625 64.80320312 -84.21875 65.078125 C-66.93300016 68.87783994 -47.26299845 69.32144234 -31.7265625 60.01953125 C-26.83890673 56.48607002 -24.69172912 52.54003111 -22.7890625 46.83203125 C-22.04516893 37.29972194 -22.04516893 37.29972194 -25.7890625 28.83203125 C-33.19860372 20.96258747 -40.77132124 18.31601341 -51.4140625 17.58203125 C-63.76449965 17.81817728 -73.78269311 22.93828516 -82.1640625 31.8046875 Z " fill="#022561" transform="translate(667.7890625,261.16796875)"/>
<path d="M0 0 C0 21.12 0 42.24 0 64 C16.83 64 33.66 64 51 64 C51 75.50115807 48.96122357 86.23409362 41 95 C31.46427483 103.58047678 22.03559368 105.18889432 9.6171875 105.06640625 C8.22777954 105.0592157 8.22777954 105.0592157 6.81030273 105.05187988 C4.54012497 105.03943855 2.27010174 105.02201371 0 105 C0.08529872 112.90346324 0.18050406 120.80672491 0.28752708 128.70992088 C0.33695676 132.38177275 0.38327919 136.05360295 0.421875 139.72558594 C-0.75843098 178.92911219 -0.75843098 178.92911219 15.7734375 212.80078125 C23.96864585 219.540922 33.11378456 221.62668174 43.5546875 221.33984375 C47.79288782 220.92178998 51.65588514 219.98226263 55.6953125 218.65625 C58 218 58 218 62 218 C64.59193978 223.18387957 63.72770491 231.251332 62.28125 236.71484375 C58.07368335 246.63995056 51.40622278 251.48102122 41.87890625 256.0078125 C28.12216544 261.36487981 11.52142706 259.47808815 -1.8125 253.75 C-3.55984576 252.86847976 -5.28954144 251.95111863 -7 251 C-8.36898437 250.24396484 -8.36898437 250.24396484 -9.765625 249.47265625 C-29.95438794 237.48910283 -41.25885411 216.18800344 -47 194 C-49.65080447 182.31741263 -50.14992918 170.61385933 -50.16113281 158.67260742 C-50.16609772 157.38651077 -50.17106262 156.10041412 -50.17617798 154.77534485 C-50.18916828 151.27930039 -50.19571986 147.78327499 -50.20018864 144.28721023 C-50.20313976 142.09450455 -50.20724806 139.90180385 -50.21169281 137.70910072 C-50.22532939 130.82347142 -50.23501605 123.93785379 -50.2388947 117.05221194 C-50.24337318 109.14952623 -50.26092748 101.24701367 -50.2898953 93.34438056 C-50.31161323 87.20301063 -50.32160426 81.06168909 -50.32293582 74.92028123 C-50.32397617 71.26687148 -50.32971824 67.61362532 -50.34775543 63.96025658 C-50.36752019 59.8785918 -50.36290716 55.79728381 -50.35644531 51.71557617 C-50.3656601 50.53019257 -50.37487488 49.34480896 -50.3843689 48.12350464 C-50.31834462 34.71693432 -48.29319871 22.3210992 -39.25390625 12.0078125 C-28.47921089 1.56912635 -14.29129801 0 0 0 Z " fill="#022561" transform="translate(448,180)"/>
<path d="M0 0 C1.49609225 0.00502697 2.99218613 0.00958775 4.48828125 0.01367188 C8.11722219 0.02457815 11.74610027 0.04177618 15.375 0.0625 C15.40555451 2.44801511 15.42777938 4.83313246 15.4453125 7.21875 C15.4594519 8.22276855 15.4594519 8.22276855 15.47387695 9.24707031 C15.52042241 17.7080002 13.78173211 24.13853458 8.265625 30.58984375 C3.28410554 34.47007688 -2.3961306 35.56207402 -8.5 36.5 C-18.44728754 38.22936788 -27.00490312 41.03476146 -33.625 49.0625 C-41.30175259 62.4074535 -42.74709654 75.55910094 -42.83032227 90.64086914 C-42.84022186 91.76384399 -42.85012146 92.88681885 -42.86032104 94.04382324 C-42.89172259 97.72841334 -42.9166085 101.4130163 -42.94140625 105.09765625 C-42.96199424 107.66312481 -42.98299118 110.22859011 -43.00437927 112.79405212 C-43.05379519 118.83923705 -43.09910924 124.88443905 -43.14240164 130.9296698 C-43.19195844 137.81732256 -43.24680756 144.70493007 -43.30208123 151.59253895 C-43.41557175 165.74915033 -43.52248116 179.90580522 -43.625 194.0625 C-45.37105532 194.08054458 -47.11716512 194.09336166 -48.86328125 194.10400391 C-50.32181519 194.11556015 -50.32181519 194.11556015 -51.80981445 194.12734985 C-62.78149696 193.87460914 -75.26026551 189.73338503 -83.48828125 182.40234375 C-91.31757409 173.87365999 -93.92865753 163.52949055 -93.91552734 152.20996094 C-93.92224457 151.36309723 -93.92896179 150.51623352 -93.93588257 149.64370728 C-93.95477598 146.86136892 -93.9587839 144.07927342 -93.9609375 141.296875 C-93.96737677 139.33839829 -93.97410594 137.37992252 -93.98110962 135.42144775 C-93.99306474 131.31609882 -93.9967928 127.21083386 -93.99560547 123.10546875 C-93.99540362 117.90150385 -94.0225745 112.69809329 -94.05714989 107.49425888 C-94.07964888 103.4444544 -94.08343589 99.39477781 -94.08238602 95.3449173 C-94.08471264 93.42999635 -94.09336546 91.51507022 -94.10905075 89.6002121 C-94.28097502 66.42166322 -90.60725361 46.07511951 -76.625 27.0625 C-76.09261719 26.33160156 -75.56023437 25.60070312 -75.01171875 24.84765625 C-62.28478631 8.8995151 -41.60633595 2.79001847 -22.109375 0.45703125 C-14.76024413 -0.20926343 -7.37175131 -0.0433825 0 0 Z " fill="#022561" transform="translate(359.625,243.9375)"/>
<path d="M0 0 C11.96908987 1.82579337 21.90687381 8.25400362 31 16 C31.73734375 16.59296875 32.4746875 17.1859375 33.234375 17.796875 C51.6662408 33.17794922 60.85620266 56.54306886 63 80 C63.89384901 94.99090834 63.03964431 109.75375309 60.40917969 124.52978516 C60.02046726 126.87643931 59.75297551 129.20896462 59.5078125 131.57421875 C58.8845055 136.30972591 58.09716895 140.91575881 54.57421875 144.41699219 C50.63921243 147.41347688 46.254601 149.51201595 41.8046875 151.63085938 C37.41314981 153.77463927 33.14572591 156.14081628 28.85595703 158.47998047 C24.49516686 160.85397776 20.11242612 163.18577079 15.72949219 165.51855469 C13.4240657 166.76983625 11.16611035 168.07038387 8.9140625 169.4140625 C6 171 6 171 3 171 C1.30571635 166.94469189 -0.38484851 162.88785974 -2.07202148 158.82958984 C-2.64620257 157.44993554 -3.22138825 156.07069886 -3.79760742 154.69189453 C-4.62684926 152.70715176 -5.45243749 150.72092298 -6.27734375 148.734375 C-6.77484131 147.54038086 -7.27233887 146.34638672 -7.78491211 145.11621094 C-9.80813901 139.92744899 -9.80813901 139.92744899 -10 138 C-9.07885742 136.17919922 -9.07885742 136.17919922 -7.60546875 134.3046875 C-7.06680176 133.59803955 -6.52813477 132.8913916 -5.97314453 132.16333008 C-5.38388184 131.40818115 -4.79461914 130.65303223 -4.1875 129.875 C2.46876739 121.00749497 7.95207241 111.85884188 13 102 C13.33757324 101.3493457 13.67514648 100.69869141 14.02294922 100.02832031 C24.22195801 80.16251393 30.29328222 56.43852606 24.375 34.3125 C19.56864854 20.26187675 11.31132119 10.38598992 0 1 C0 0.67 0 0.34 0 0 Z " fill="#0089D0" transform="translate(179,247)"/>
<path d="M0 0 C1.52173828 0.89235352 1.52173828 0.89235352 3.07421875 1.80273438 C5.81131579 3.41226253 8.53307811 5.04421734 11.25 6.6875 C12.9164252 7.68790234 14.58301969 8.68802292 16.25 9.6875 C14.59940593 13.77939188 11.67820453 16.66614542 8.6875 19.8125 C7.60239038 20.97091015 6.51775972 22.12976913 5.43359375 23.2890625 C4.89589355 23.86172852 4.35819336 24.43439453 3.80419922 25.02441406 C1.59407799 27.38937571 -0.58145402 29.7844191 -2.75 32.1875 C-3.430625 32.9403125 -4.11125 33.693125 -4.8125 34.46875 C-6.82773375 36.66916801 -6.82773375 36.66916801 -8.453125 39.32421875 C-11.72895914 42.69476238 -14.99909714 43.07788564 -19.5 44 C-33.96803666 47.41207652 -48.69616375 53.43483103 -57.4296875 66.12890625 C-62.32136713 74.95880252 -62.54648253 83.00979689 -59.82421875 92.60546875 C-56.64912416 101.71510377 -51.99452599 109.37142813 -45.75 116.6875 C-46.08 117.3475 -46.41 118.0075 -46.75 118.6875 C-64.6244915 109.71627233 -78.5052878 97.40160586 -85.00390625 78.1484375 C-89.35294138 63.80345251 -85.70721367 49.38332475 -79.00366211 36.38427734 C-75.86981563 30.59751772 -72.20339128 25.54186713 -67.75 20.6875 C-67.09773438 19.94371094 -66.44546875 19.19992187 -65.7734375 18.43359375 C-49.25980649 0.65206223 -22.35659589 -13.57261725 0 0 Z " fill="#0089D0" transform="translate(158.75,309.3125)"/>
<path d="M0 0 C11.95130989 10.76862818 15.82472108 24.52898478 17.28125 39.984375 C17.56171512 48.25809597 16.12582166 56.50289565 14.8515625 64.65625 C14.73635254 65.39681641 14.62114258 66.13738281 14.50244141 66.90039062 C13.96314183 69.15402346 13.11013814 70.97323928 12 73 C10.11944396 71.11944396 10.50752085 67.77370437 10.25 65.25 C8.67859298 52.1747667 3.69206298 38.79972296 -6.87890625 30.34765625 C-22.09185549 20.68197027 -38.2778295 22.1152046 -55.09765625 25.76953125 C-60.64322837 27.07697129 -65.81768147 28.99040358 -71.0546875 31.2421875 C-76.65512344 32.68314847 -81.58855199 29.31075848 -86.4921875 26.7421875 C-87.08299103 26.43427277 -87.67379456 26.12635803 -88.28250122 25.80911255 C-90.14886128 24.83520491 -92.01195024 23.85522261 -93.875 22.875 C-95.14822533 22.2092295 -96.42166093 21.54386096 -97.6953125 20.87890625 C-100.79931879 19.25724259 -103.90042416 17.63011907 -107 16 C-107 12 -107 12 -104.7265625 9.51953125 C-103.7026189 8.60595685 -102.66802617 7.70422591 -101.625 6.8125 C-101.08278809 6.33345215 -100.54057617 5.8544043 -99.98193359 5.36083984 C-98.86671647 4.37609562 -97.74770704 3.39562996 -96.625 2.41943359 C-94.26126666 0.3547182 -91.94612855 -1.76263149 -89.625 -3.875 C-88.80644531 -4.59558594 -87.98789063 -5.31617188 -87.14453125 -6.05859375 C-84.83351093 -8.08962079 -84.83351093 -8.08962079 -82.3125 -10.9375 C-61.07873316 -24.15852463 -18.20231356 -14.0783519 0 0 Z " fill="#022561" transform="translate(181,259)"/>
<path d="M0 0 C0.825 0.53625 1.65 1.0725 2.5 1.625 C4.36778534 2.90785611 4.36778534 2.90785611 6.5 3.625 C8.5649808 3.03867734 8.5649808 3.03867734 10.5 1.8125 C16.66674949 -1.71651875 22.46870724 -1.93627881 29.5 -1.375 C34.23331657 0.26014572 36.89474106 2.34493174 39.5 6.625 C41.38263652 12.6540501 41.77783196 18.54303563 41.6953125 24.81640625 C41.6924826 25.64712143 41.68965271 26.47783661 41.68673706 27.33372498 C41.67566291 29.95180505 41.6505836 32.56952571 41.625 35.1875 C41.61495365 36.97720855 41.60583072 38.76692254 41.59765625 40.55664062 C41.57747855 44.91300573 41.53830731 49.26860702 41.5 53.625 C36.22 53.625 30.94 53.625 25.5 53.625 C25.470271 51.86857178 25.470271 51.86857178 25.43994141 50.07666016 C25.36399919 45.74163926 25.2752648 41.40695905 25.18261719 37.07226562 C25.14428023 35.19440424 25.10943573 33.31646824 25.078125 31.43847656 C25.03257637 28.74256679 24.97456625 26.04717288 24.9140625 23.3515625 C24.90251129 22.50880768 24.89096008 21.66605286 24.87905884 20.79776001 C24.95806819 16.23479043 24.95806819 16.23479043 22.5 12.625 C16.75129623 11.96168803 14.06737462 13.22602354 9.5 16.625 C8.84 16.625 8.18 16.625 7.5 16.625 C7.5 28.835 7.5 41.045 7.5 53.625 C2.55 53.625 -2.4 53.625 -7.5 53.625 C-7.529729 51.97516113 -7.529729 51.97516113 -7.56005859 50.29199219 C-7.63619901 46.20663778 -7.72490336 42.12163562 -7.81738281 38.03662109 C-7.85563771 36.2694393 -7.8904967 34.50218056 -7.921875 32.73486328 C-7.96760152 30.19275437 -8.02558289 27.65117352 -8.0859375 25.109375 C-8.09748871 24.32069031 -8.10903992 23.53200562 -8.12094116 22.71942139 C-8.22337084 18.90226745 -8.352852 15.86455664 -10.5 12.625 C-15.55221287 12.09872783 -19.47899388 12.55694202 -23.79296875 15.37573242 C-27.88055782 20.76173901 -26.57821613 29.44245754 -26.5 35.9375 C-26.50809425 37.64910952 -26.51977365 39.36070609 -26.53515625 41.07226562 C-26.56496446 45.25749865 -26.54561722 49.4399369 -26.5 53.625 C-31.45 53.625 -36.4 53.625 -41.5 53.625 C-41.5 36.135 -41.5 18.645 -41.5 0.625 C-37.87 0.625 -34.24 0.625 -30.5 0.625 C-30.17 1.945 -29.84 3.265 -29.5 4.625 C-28.74074219 4.27566406 -27.98148437 3.92632812 -27.19921875 3.56640625 C-26.20535156 3.11136719 -25.21148437 2.65632813 -24.1875 2.1875 C-23.20136719 1.73503906 -22.21523438 1.28257812 -21.19921875 0.81640625 C-14.44885799 -2.1631307 -6.93374061 -2.72396953 0 0 Z " fill="#0089D0" transform="translate(465.5,484.375)"/>
<path d="M0 0 C0.93521906 2.80565718 1.15392729 4.83226214 1.3125 7.75 C1.79885744 12.58537972 2.55994116 16.41700243 6 20 C15.23967123 26.30064899 26.04601714 25.30554781 36.54296875 23.5703125 C39.10341469 23.14791125 41.64236471 22.78019371 44.21606445 22.46435547 C45.46476318 22.31111816 46.71346191 22.15788086 48 22 C49.8819695 26.35478547 51.75132308 30.71468595 53.60913086 35.07983398 C54.2430483 36.56438584 54.88040344 38.04747461 55.52124023 39.52905273 C56.44118986 41.65754967 57.34869381 43.79098269 58.25390625 45.92578125 C58.68818687 46.9196862 58.68818687 46.9196862 59.13124084 47.93367004 C61.11387171 52.65838488 61.11387171 52.65838488 60 56 C56.7032386 58.35573046 53.16196047 60.28435242 49.62792969 62.26269531 C47.89140086 63.24076252 46.17209 64.24919605 44.453125 65.2578125 C43.35226563 65.87914062 42.25140625 66.50046875 41.1171875 67.140625 C40.11284668 67.71329102 39.10850586 68.28595703 38.07373047 68.87597656 C33.57527284 70.52100428 30.00822044 69.6597981 25.55078125 68.1953125 C17.76826756 64.47383126 12.04488554 59.0273387 6 53 C5.39027344 52.41347656 4.78054687 51.82695312 4.15234375 51.22265625 C-4.77437928 41.86745051 -8.59552789 29.46919338 -8.35546875 16.8515625 C-7.72867012 10.06009604 -4.99374071 4.62763069 0 0 Z " fill="#022561" transform="translate(114,368)"/>
<path d="M0 0 C5.91435285 4.52052447 8.33247664 10.18375622 9.83984375 17.34375 C10.11645214 21.14711542 10.08984375 24.96783936 10.08984375 28.78125 C-7.23515625 29.27625 -7.23515625 29.27625 -24.91015625 29.78125 C-21.70813146 35.39332017 -21.70813146 35.39332017 -16.91015625 37.78125 C-9.55074668 38.52200103 -3.46984644 38.20369706 3.08984375 34.78125 C4.07984375 34.78125 5.06984375 34.78125 6.08984375 34.78125 C6.59817966 36.02788331 7.0961552 37.27874387 7.58984375 38.53125 C7.86828125 39.22734375 8.14671875 39.9234375 8.43359375 40.640625 C9.08984375 42.78125 9.08984375 42.78125 9.08984375 46.78125 C-1.12140343 52.90348005 -10.53247558 53.79673011 -22.1484375 51.50390625 C-29.29118073 49.6348716 -33.67913987 46.82555911 -37.91015625 40.78125 C-42.71728449 32.36877558 -43.19707168 22.93375737 -40.84765625 13.59375 C-38.5065203 6.71256069 -34.16506389 1.69716741 -27.72265625 -1.65625 C-18.50488505 -5.84273264 -8.5585116 -5.46064544 0 0 Z M-22.91015625 11.78125 C-24.71951048 14.41303797 -24.91015625 15.5424266 -24.91015625 18.78125 C-18.31015625 18.78125 -11.71015625 18.78125 -4.91015625 18.78125 C-6.35660539 13.22099979 -6.35660539 13.22099979 -9.91015625 9.78125 C-15.24953147 8.370849 -18.31206641 8.68021267 -22.91015625 11.78125 Z " fill="#0089D0" transform="translate(560.91015625,487.21875)"/>
<path d="M0 0 C7.28973884 -0.36278638 13.9496423 0.9654838 19.6796875 5.73046875 C27.21834093 13.86476887 27.03041385 22.07423144 27.82421875 33.1875 C10.49921875 33.6825 10.49921875 33.6825 -7.17578125 34.1875 C-3.97286038 39.79758632 -3.97286038 39.79758632 0.82421875 42.1875 C8.75128243 43.00461366 15.47436379 42.17727151 22.82421875 39.1875 C23.50089873 40.43210783 24.16516594 41.68346896 24.82421875 42.9375 C25.19546875 43.63359375 25.56671875 44.3296875 25.94921875 45.046875 C26.82421875 47.1875 26.82421875 47.1875 26.82421875 51.1875 C17.33153381 57.51595662 6.91413119 58.1271805 -4.17578125 56.1875 C-10.55904966 54.26011552 -16.73820083 51.03137681 -20.39453125 45.265625 C-24.66958646 37.1430201 -25.5672957 28.09387384 -23.45703125 19.13671875 C-20.45809185 10.20036305 -15.38411998 5.52812357 -7.17578125 1.1875 C-4.72212093 0.34808989 -2.56698061 0.22121197 0 0 Z M-5.17578125 16.1875 C-6.16578125 18.4975 -7.15578125 20.8075 -8.17578125 23.1875 C-1.24578125 23.1875 5.68421875 23.1875 12.82421875 23.1875 C10.74717984 16.95638327 10.30393362 16.03695173 4.82421875 13.1875 C0.34502328 13.1875 -1.46649563 13.74094991 -5.17578125 16.1875 Z " fill="#0089D0" transform="translate(137.17578125,482.8125)"/>
<path d="M0 0 C4.18629169 2.46303648 6.12068451 5.92565992 7.5 10.5 C8.40599414 15.74323517 8.6340452 20.76146384 8.59765625 26.05859375 C8.5962413 26.84774673 8.59482635 27.63689972 8.59336853 28.44996643 C8.58781555 30.94585115 8.57527208 33.44164285 8.5625 35.9375 C8.55747891 37.63997265 8.55291707 39.34244673 8.54882812 41.04492188 C8.53871669 45.19667839 8.51913255 49.34823629 8.5 53.5 C3.22 53.5 -2.06 53.5 -7.5 53.5 C-7.51458252 52.36457764 -7.52916504 51.22915527 -7.54418945 50.05932617 C-7.60213676 45.84904391 -7.67936941 41.6392985 -7.76245117 37.42944336 C-7.7957174 35.60694081 -7.82374406 33.78433481 -7.84643555 31.96166992 C-7.87995081 29.3424875 -7.93226352 26.72425452 -7.98828125 24.10546875 C-7.99467117 23.28974899 -8.0010611 22.47402924 -8.00764465 21.6335907 C-8.00838239 17.43152888 -8.00838239 17.43152888 -9.82389832 13.78804016 C-12.675594 11.59658686 -15.0265272 12.09476151 -18.5 12.5 C-20.98403388 13.65455096 -23.17055826 15.0383895 -25.5 16.5 C-26.16 16.5 -26.82 16.5 -27.5 16.5 C-27.5 28.71 -27.5 40.92 -27.5 53.5 C-32.45 53.5 -37.4 53.5 -42.5 53.5 C-42.5 36.01 -42.5 18.52 -42.5 0.5 C-39.2 0.5 -35.9 0.5 -32.5 0.5 C-31.51 1.985 -31.51 1.985 -30.5 3.5 C-27.19598284 2.42619442 -24.05005871 1.29830218 -20.875 -0.125 C-14.24885757 -2.60028309 -6.56215065 -2.75463413 0 0 Z " fill="#0089D0" transform="translate(626.5,484.5)"/>
<path d="M0 0 C4.95 0 9.9 0 15 0 C15.01458252 1.06436279 15.02916504 2.12872559 15.04418945 3.2253418 C15.1022978 7.18596469 15.17952945 11.14602648 15.26245117 15.10620117 C15.29564169 16.81802238 15.32369189 18.52995148 15.34643555 20.24194336 C15.38009032 22.70733479 15.43240974 25.17174281 15.48828125 27.63671875 C15.49467117 28.39836838 15.5010611 29.16001801 15.50764465 29.94474792 C15.63045552 34.41420744 16.10846295 37.50974668 19 41 C24.87223856 42.03627739 29.09441098 39.97924796 34 37 C36.03123075 34.96876925 35.25669618 30.82231134 35.31640625 28.02734375 C35.33718735 27.22970108 35.35796844 26.43205841 35.37937927 25.61024475 C35.44496158 23.05275389 35.50379967 20.4951572 35.5625 17.9375 C35.60567699 16.20767118 35.64929101 14.47785321 35.69335938 12.74804688 C35.80065172 8.4988074 35.90189426 4.2494611 36 0 C40.95 0 45.9 0 51 0 C51 17.49 51 34.98 51 53 C47.37 53 43.74 53 40 53 C39.34 51.68 38.68 50.36 38 49 C37.25556641 49.39832031 37.25556641 49.39832031 36.49609375 49.8046875 C28.363136 54.03320823 20.13552978 56.73640268 10.9453125 54.5 C6.74016544 52.91178995 4.32646875 50.7912824 2 47 C0.01775164 41.4113699 -0.26788523 36.46373695 -0.1953125 30.56640625 C-0.1924826 29.68846909 -0.18965271 28.81053192 -0.18673706 27.9059906 C-0.17561598 25.12468355 -0.15052672 22.34370836 -0.125 19.5625 C-0.11495975 17.66732239 -0.10583573 15.77213968 -0.09765625 13.87695312 C-0.07570315 9.25117583 -0.0412296 4.62564402 0 0 Z " fill="#0089D0" transform="translate(279,485)"/>
<path d="M0 0 C-1.32 3.63 -2.64 7.26 -4 11 C-5.815 10.484375 -7.63 9.96875 -9.5 9.4375 C-14.88955013 8.10439573 -18.62504942 7.58553932 -24 9 C-27.94581394 11.40179979 -29.90062301 13.50254867 -31 18 C-31.59472431 23.73484159 -31.28719587 28.0692062 -28 33 C-24.76029534 36.06497902 -22.4644391 36.38466294 -18.0625 36.3125 C-17.04285156 36.30863281 -16.02320313 36.30476562 -14.97265625 36.30078125 C-11.95162865 35.99510566 -9.7752917 35.17867719 -7 34 C-6.01 34 -5.02 34 -4 34 C-2.68 37.63 -1.36 41.26 0 45 C-7.76532509 50.54666078 -17.45054675 51.79039581 -26.8125 50.5 C-33.97019141 48.83444 -39.75871483 45.29120661 -43.9375 39.1875 C-48.49849166 30.82305162 -48.71088156 22.27477901 -47 13 C-44.65560286 5.64344345 -40.84671102 0.62684168 -34 -3 C-21.97740104 -8.09990891 -11.0739285 -6.6443571 0 0 Z " fill="#0089D0" transform="translate(222,489)"/>
<path d="M0 0 C0 4.95 0 9.9 0 15 C3.3 15 6.6 15 10 15 C10.6708712 16.6232687 11.33657029 18.24867578 12 19.875 C12.37125 20.77992188 12.7425 21.68484375 13.125 22.6171875 C14 25 14 25 14 27 C9.38 27 4.76 27 0 27 C0.1407095 31.08356928 0.28734853 35.16677636 0.4375 39.25 C0.47681641 40.40886719 0.51613281 41.56773437 0.55664062 42.76171875 C0.59853516 43.87675781 0.64042969 44.99179687 0.68359375 46.140625 C0.72025146 47.16704102 0.75690918 48.19345703 0.79467773 49.25097656 C0.93975045 52.23954672 0.93975045 52.23954672 2 56 C5.63 56 9.26 56 13 56 C17 63.5 17 63.5 17 68 C10.40499663 71.10499217 2.45641798 71.20111725 -4.55078125 69.3125 C-9.17358951 67.22309514 -11.58890357 64.53286128 -14 60 C-15.15927528 56.52217417 -15.11313066 53.81196743 -15.09765625 50.14453125 C-15.0962413 49.48289474 -15.09482635 48.82125824 -15.09336853 48.13957214 C-15.08777996 46.03050172 -15.07522965 43.92153823 -15.0625 41.8125 C-15.05748352 40.38086091 -15.05292087 38.94922015 -15.04882812 37.51757812 C-15.0378143 34.01168412 -15.02055755 30.5058525 -15 27 C-17.31 27 -19.62 27 -22 27 C-22 23.04 -22 19.08 -22 15 C-19.69 15 -17.38 15 -15 15 C-15 10.71 -15 6.42 -15 2 C-9.76148736 0.88245064 -5.37414597 0 0 0 Z " fill="#0089D0" transform="translate(395,470)"/>
<path d="M0 0 C0 4.95 0 9.9 0 15 C2.97 15 5.94 15 9 15 C12.875 22.5 12.875 22.5 14 27 C9.38 27 4.76 27 0 27 C0.0866926 31.27185249 0.19355022 35.54152959 0.3125 39.8125 C0.33505859 41.02744141 0.35761719 42.24238281 0.38085938 43.49414062 C0.4340332 45.23920898 0.4340332 45.23920898 0.48828125 47.01953125 C0.51446533 48.09307861 0.54064941 49.16662598 0.56762695 50.27270508 C0.78450017 53.01341775 0.78450017 53.01341775 2.390625 54.85546875 C4.57482104 56.40879263 6.03761121 56.30271256 8.6875 56.1875 C9.49574219 56.16042969 10.30398438 56.13335938 11.13671875 56.10546875 C12.05904297 56.05326172 12.05904297 56.05326172 13 56 C13.67667998 57.24460783 14.34094719 58.49596896 15 59.75 C15.37125 60.44609375 15.7425 61.1421875 16.125 61.859375 C17 64 17 64 17 68 C10.37860778 71.1174163 2.54425753 71.11489548 -4.515625 69.3828125 C-8.86658042 67.50625539 -11.56961447 64.71643441 -13.9855957 60.69726562 C-16.20465141 54.79687394 -15.49930846 48.21331982 -15.3125 42 C-15.28737943 40.54300712 -15.2645729 39.08597241 -15.24414062 37.62890625 C-15.18945637 34.08505803 -15.10339531 30.54280068 -15 27 C-17.31 27 -19.62 27 -22 27 C-22 23.04 -22 19.08 -22 15 C-19.69 15 -17.38 15 -15 15 C-15 10.71 -15 6.42 -15 2 C-9.76148736 0.88245064 -5.37414597 0 0 0 Z " fill="#0089D0" transform="translate(668,470)"/>
<path d="M0 0 C2.97 0 5.94 0 9 0 C11.10361696 2.4223468 12 3.78245634 12 7 C12.77085937 6.57847656 13.54171875 6.15695312 14.3359375 5.72265625 C15.33882812 5.17480469 16.34171875 4.62695312 17.375 4.0625 C18.37273437 3.51722656 19.37046875 2.97195313 20.3984375 2.41015625 C24.3299286 0.27912279 26.49182736 -0.09800375 31 0 C31.50559908 1.43554025 32.0042749 2.8735202 32.5 4.3125 C32.7784375 5.11300781 33.056875 5.91351563 33.34375 6.73828125 C34 9 34 9 34 12 C33.28714844 12.23074219 32.57429688 12.46148437 31.83984375 12.69921875 C30.88207031 13.02535156 29.92429687 13.35148437 28.9375 13.6875 C27.99777344 14.00074219 27.05804688 14.31398438 26.08984375 14.63671875 C25.07019531 15.08660156 24.05054688 15.53648437 23 16 C22.37295166 16.2266333 21.74590332 16.4532666 21.09985352 16.68676758 C18.68171014 17.87314891 17.53841684 18.76194002 16 21 C14.96502933 26.4344731 15.01907134 31.79705989 15.0625 37.3125 C15.049385 38.83141079 15.03314212 40.350298 15.01367188 41.86914062 C14.96704019 45.5814281 14.98511618 49.28542301 15 53 C10.05 53 5.1 53 0 53 C0 35.51 0 18.02 0 0 Z " fill="#0089D0" transform="translate(234,485)"/>
<path d="M0 0 C2.97 0 5.94 0 9 0 C11.10361696 2.4223468 12 3.78245634 12 7 C12.77085938 6.57847656 13.54171875 6.15695312 14.3359375 5.72265625 C15.33882812 5.17480469 16.34171875 4.62695312 17.375 4.0625 C18.37273437 3.51722656 19.37046875 2.97195313 20.3984375 2.41015625 C24.3299286 0.27912279 26.49182736 -0.09800375 31 0 C31.50559908 1.43554025 32.0042749 2.8735202 32.5 4.3125 C32.7784375 5.11300781 33.056875 5.91351563 33.34375 6.73828125 C34 9 34 9 34 12 C33.28714844 12.23074219 32.57429688 12.46148437 31.83984375 12.69921875 C30.88207031 13.02535156 29.92429687 13.35148437 28.9375 13.6875 C27.99777344 14.00074219 27.05804688 14.31398438 26.08984375 14.63671875 C25.07019531 15.08660156 24.05054687 15.53648437 23 16 C22.37295166 16.2266333 21.74590332 16.4532666 21.09985352 16.68676758 C18.68171014 17.87314891 17.53841684 18.76194002 16 21 C14.96502933 26.4344731 15.01907134 31.79705989 15.0625 37.3125 C15.049385 38.83141079 15.03314212 40.350298 15.01367188 41.86914062 C14.96704019 45.5814281 14.98511618 49.28542301 15 53 C10.05 53 5.1 53 0 53 C0 35.51 0 18.02 0 0 Z " fill="#0089D0" transform="translate(71,485)"/>
<path d="M0 0 C4.95 0 9.9 0 15 0 C15 17.49 15 34.98 15 53 C10.05 53 5.1 53 0 53 C0 35.51 0 18.02 0 0 Z " fill="#0089D0" transform="translate(346,485)"/>
<path d="M0 0 C2.4375 1.625 2.4375 1.625 4 4 C4.72125695 8.40768137 4.52001338 10.25937488 1.9375 13.9375 C-1.72903411 16.51187502 -3.60406563 16.63940864 -8 16 C-10.375 15 -10.375 15 -12 13 C-12.90481741 10.28554777 -13.25036984 7.85421621 -13 5 C-9.3147153 -0.97270278 -6.71729025 -1.50559954 0 0 Z " fill="#0089D0" transform="translate(358,462)"/>
</svg>
